$MeshFormat
4.1 0 8
$EndMeshFormat
$PhysicalNames
4
2 1 "inlet"
2 2 "outlet"
2 3 "wall"
3 4 "duct"
$EndPhysicalNames
$Entities
18 28 16 3
1 2.5 -2 0 0 
2 3.5 -2 0 0 
3 3.5 -2 1 0 
4 2.5 -2 1 0 
5 2.5 0 0 0 
6 3.5 0 0 0 
10 3.5 0 1 0 
14 2.5 0 1 0 
15 1.530808498934192e-16 2.5 0 0 
16 2.143131898507868e-16 3.5 0 0 
20 2.143131898507868e-16 3.5 1 0 
24 1.530808498934192e-16 2.5 1 0 
36 0 0 0 0 
46 0 0 1 0 
47 -2 2.5 0 0 
48 -2 3.5 0 0 
52 -2 3.5 1 0 
56 -2 2.5 1 0 
1 2.5 -2 0 3.5 -2 0 0 2 1 -2 
2 3.5 -2 0 3.5 -2 1 0 2 2 -3 
3 2.5 -2 1 3.5 -2 1 0 2 3 -4 
4 2.5 -2 0 2.5 -2 1 0 2 4 -1 
6 2.5 0 0 3.5 0 0 0 2 5 -6 
7 3.5 0 0 3.5 0 1 0 2 6 -10 
8 2.5 0 1 3.5 0 1 0 2 10 -14 
9 2.5 0 0 2.5 0 1 0 2 14 -5 
11 2.5 -2 0 2.5 0 0 0 2 1 -5 
12 3.5 -2 0 3.5 0 0 0 2 2 -6 
16 3.5 -2 1 3.5 0 1 0 2 3 -10 
20 2.5 -2 1 2.5 0 1 0 2 4 -14 
28 1.530808498934192e-16 2.5 0 2.143131898507868e-16 3.5 0 0 2 15 -16 
29 2.143131898507868e-16 3.5 0 2.143131898507868e-16 3.5 1 0 2 16 -20 
30 1.530808498934192e-16 2.5 1 2.143131898507868e-16 3.5 1 0 2 20 -24 
31 1.530808498934192e-16 2.5 0 1.530808498934192e-16 2.5 1 0 2 24 -15 
33 2.220446049250313e-16 0 0 2.5 2.5 0 0 2 5 -15 
34 2.220446049250313e-16 0 0 3.5 3.5 0 0 2 6 -16 
38 2.220446049250313e-16 0 1 3.5 3.5 1 0 2 10 -20 
42 2.220446049250313e-16 0 1 2.5 2.5 1 0 2 14 -24 
50 -2 2.5 0 -2 3.5 0 0 2 47 -48 
51 -2 3.5 0 -2 3.5 1 0 2 48 -52 
52 -2 2.5 1 -2 3.5 1 0 2 52 -56 
53 -2 2.5 0 -2 2.5 1 0 2 56 -47 
55 -2 2.5 0 1.110223024625157e-16 2.5 0 0 2 15 -47 
56 -2 3.5 0 2.220446049250313e-16 3.5 0 0 2 16 -48 
60 -2 3.5 1 2.220446049250313e-16 3.5 1 0 2 20 -52 
64 -2 2.5 1 1.110223024625157e-16 2.5 1 0 2 24 -56 
1 2.5 -2 0 3.5 -2 1 1 1 4 1 2 3 4 
13 2.5 -2 0 3.5 0 0 1 3 4 1 12 -6 -11 
17 3.5 -2 0 3.5 0 1 1 3 4 2 16 -7 -12 
21 2.5 -2 1 3.5 0 1 1 3 4 3 20 -8 -16 
25 2.5 -2 0 2.5 0 1 1 3 4 4 11 -9 -20 
26 2.5 0 0 3.5 0 1 0 4 6 7 8 9 
35 2.220446049250313e-16 0 0 3.5 3.5 0 1 3 4 6 34 -28 -33 
39 2.220446049250313e-16 0 0 3.5 3.5 1 1 3 4 7 38 -29 -34 
43 2.220446049250313e-16 0 1 3.5 3.5 1 1 3 4 8 42 -30 -38 
47 2.220446049250313e-16 0 0 2.5 2.5 1 1 3 4 9 33 -31 -42 
48 1.530808498934192e-16 2.5 0 2.143131898507868e-16 3.5 1 0 4 28 29 30 31 
57 -2 2.5 0 2.220446049250313e-16 3.5 0 1 3 4 28 56 -50 -55 
61 -2 3.5 0 2.220446049250313e-16 3.5 1 1 3 4 29 60 -51 -56 
65 -2 2.5 1 2.220446049250313e-16 3.5 1 1 3 4 30 64 -52 -60 
69 -2 2.5 0 1.110223024625157e-16 2.5 1 1 3 4 31 55 -53 -64 
70 -2 2.5 0 -2 3.5 1 1 2 4 50 51 52 53 
1 2.5 -2 0 3.5 0 1 1 4 6 -1 26 13 17 21 25 
2 2.220446049250313e-16 0 0 3.5 3.5 1 1 4 6 -26 48 35 39 43 47 
3 -2 2.5 0 2.220446049250313e-16 3.5 1 1 4 6 -48 70 57 61 65 69 
$EndEntities
$Nodes
63 1116 1 1116
0 1 0 1
1
2.5 -2 0
0 2 0 1
2
3.5 -2 0
0 3 0 1
3
3.5 -2 1
0 4 0 1
4
2.5 -2 1
0 5 0 1
5
2.5 0 0
0 6 0 1
6
3.5 0 0
0 10 0 1
7
3.5 0 1
0 14 0 1
8
2.5 0 1
0 15 0 1
9
1.530808498934192e-16 2.5 0
0 16 0 1
10
2.143131898507868e-16 3.5 0
0 20 0 1
11
2.143131898507868e-16 3.5 1
0 24 0 1
12
1.530808498934192e-16 2.5 1
0 47 0 1
13
-2 2.5 0
0 48 0 1
14
-2 3.5 0
0 52 0 1
15
-2 3.5 1
0 56 0 1
16
-2 2.5 1
1 1 0 4
17
18
19
20
2.7 -2 0
2.9 -2 0
3.1 -2 0
3.3 -2 0
1 2 0 4
21
22
23
24
3.5 -2 0.1999999999995569
3.5 -2 0.3999999999989731
3.5 -2 0.599999999998945
3.5 -2 0.7999999999994725
1 3 0 4
25
26
27
28
3.3 -2 1
3.1 -2 1
2.9 -2 1
2.7 -2 1
1 4 0 4
29
30
31
32
2.5 -2 0.8
2.5 -2 0.6000000000013874
2.5 -2 0.400000000001665
2.5 -2 0.2000000000008325
1 6 0 4
33
34
35
36
2.7 0 0
2.9 0 0
3.1 0 0
3.3 0 0
1 7 0 4
37
38
39
40
3.5 0 0.1999999999995569
3.5 0 0.3999999999989731
3.5 0 0.599999999998945
3.5 0 0.7999999999994725
1 8 0 4
41
42
43
44
3.3 0 1
3.1 0 1
2.9 0 1
2.7 0 1
1 9 0 4
45
46
47
48
2.5 0 0.8
2.5 0 0.6000000000013874
2.5 0 0.400000000001665
2.5 0 0.2000000000008325
1 11 0 5
49
50
51
52
53
2.5 -1.666666666666667 0
2.5 -1.333333333333333 0
2.5 -1 0
2.5 -0.6666666666666667 0
2.5 -0.3333333333333333 0
1 12 0 5
54
55
56
57
58
3.5 -1.666666666666667 0
3.5 -1.333333333333333 0
3.5 -1 0
3.5 -0.6666666666666667 0
3.5 -0.3333333333333333 0
1 16 0 5
59
60
61
62
63
3.5 -1.666666666666667 1
3.5 -1.333333333333333 1
3.5 -1 1
3.5 -0.6666666666666667 1
3.5 -0.3333333333333333 1
1 20 0 5
64
65
66
67
68
2.5 -1.666666666666667 1
2.5 -1.333333333333333 1
2.5 -1 1
2.5 -0.6666666666666667 1
2.5 -0.3333333333333333 1
1 28 0 4
69
70
71
72
1.653273178848927e-16 2.7 0
1.775737858763662e-16 2.9 0
1.898202538678397e-16 3.1 0
2.020667218593133e-16 3.3 0
1 29 0 4
73
74
75
76
2.143131898507868e-16 3.5 0.1999999999995569
2.143131898507868e-16 3.5 0.3999999999989731
2.143131898507868e-16 3.5 0.599999999998945
2.143131898507868e-16 3.5 0.7999999999994725
1 30 0 4
77
78
79
80
2.020667218593133e-16 3.3 1
1.898202538678397e-16 3.1 1
1.775737858763662e-16 2.9 1
1.653273178848927e-16 2.7 1
1 31 0 4
81
82
83
84
1.530808498934192e-16 2.5 0.8
1.530808498934192e-16 2.5 0.6000000000013874
1.530808498934192e-16 2.5 0.400000000001665
1.530808498934192e-16 2.5 0.2000000000008325
1 33 0 17
85
86
87
88
89
90
91
92
93
94
95
96
97
98
99
100
101
2.490486745229364 0.2178893568691454 0
2.46201938253052 0.4341204441673258 0
2.414814565722671 0.6470476127563018 0
2.349231551964771 0.8550503583141718 0
2.265769467591625 1.056545654351749 0
2.165063509461097 1.25 0
2.047880110722479 1.433941090877615 0
1.915111107797445 1.606969024216348 0
1.767766952966369 1.767766952966369 0
1.606969024216348 1.915111107797445 0
1.433941090877615 2.047880110722479 0
1.25 2.165063509461096 0
1.056545654351749 2.265769467591625 0
0.8550503583141721 2.349231551964771 0
0.6470476127563018 2.414814565722671 0
0.434120444167326 2.46201938253052 0
0.2178893568691459 2.490486745229364 0
1 34 0 17
102
103
104
105
106
107
108
109
110
111
112
113
114
115
116
117
118
3.48668144332111 0.3050450996168036 0
3.446827135542728 0.6077686218342562 0
3.380740392011739 0.9058666578588226 0
3.288924172750679 1.19707050163984 0
3.172077254628275 1.479163916092448 0
3.031088913245536 1.75 0
2.867032155011471 2.007517527228661 0
2.681155550916423 2.249756633902887 0
2.474873734152916 2.474873734152916 0
2.249756633902888 2.681155550916423 0
2.007517527228662 2.867032155011471 0
1.75 3.031088913245535 0
1.479163916092448 3.172077254628275 0
1.197070501639841 3.288924172750679 0
0.9058666578588226 3.380740392011739 0
0.6077686218342564 3.446827135542728 0
0.3050450996168043 3.48668144332111 0
1 38 0 17
119
120
121
122
123
124
125
126
127
128
129
130
131
132
133
134
135
3.48668144332111 0.3050450996168036 1
3.446827135542728 0.6077686218342562 1
3.380740392011739 0.9058666578588226 1
3.288924172750679 1.19707050163984 1
3.172077254628275 1.479163916092448 1
3.031088913245536 1.75 1
2.867032155011471 2.007517527228661 1
2.681155550916423 2.249756633902887 1
2.474873734152916 2.474873734152916 1
2.249756633902888 2.681155550916423 1
2.007517527228662 2.867032155011471 1
1.75 3.031088913245535 1
1.479163916092448 3.172077254628275 1
1.197070501639841 3.288924172750679 1
0.9058666578588226 3.380740392011739 1
0.6077686218342564 3.446827135542728 1
0.3050450996168043 3.48668144332111 1
1 42 0 17
136
137
138
139
140
141
142
143
144
145
146
147
148
149
150
151
152
2.490486745229364 0.2178893568691454 1
2.46201938253052 0.4341204441673258 1
2.414814565722671 0.6470476127563018 1
2.349231551964771 0.8550503583141718 1
2.265769467591625 1.056545654351749 1
2.165063509461097 1.25 1
2.047880110722479 1.433941090877615 1
1.915111107797445 1.606969024216348 1
1.767766952966369 1.767766952966369 1
1.606969024216348 1.915111107797445 1
1.433941090877615 2.047880110722479 1
1.25 2.165063509461096 1
1.056545654351749 2.265769467591625 1
0.8550503583141721 2.349231551964771 1
0.6470476127563018 2.414814565722671 1
0.434120444167326 2.46201938253052 1
0.2178893568691459 2.490486745229364 1
1 50 0 4
153
154
155
156
-2 2.7 0
-2 2.9 0
-2 3.1 0
-2 3.3 0
1 51 0 4
157
158
159
160
-2 3.5 0.1999999999995569
-2 3.5 0.3999999999989731
-2 3.5 0.599999999998945
-2 3.5 0.7999999999994725
1 52 0 4
161
162
163
164
-2 3.3 1
-2 3.1 1
-2 2.9 1
-2 2.7 1
1 53 0 4
165
166
167
168
-2 2.5 0.8
-2 2.5 0.6000000000013874
-2 2.5 0.400000000001665
-2 2.5 0.2000000000008325
1 55 0 5
169
170
171
172
173
-0.3333333333333331 2.5 0
-0.6666666666666665 2.5 0
-0.9999999999999999 2.5 0
-1.333333333333333 2.5 0
-1.666666666666667 2.5 0
1 56 0 5
174
175
176
177
178
-0.3333333333333331 3.5 0
-0.6666666666666664 3.5 0
-0.9999999999999998 3.5 0
-1.333333333333333 3.5 0
-1.666666666666667 3.5 0
1 60 0 5
179
180
181
182
183
-0.3333333333333331 3.5 1
-0.6666666666666664 3.5 1
-0.9999999999999998 3.5 1
-1.333333333333333 3.5 1
-1.666666666666667 3.5 1
1 64 0 5
184
185
186
187
188
-0.3333333333333331 2.5 1
-0.6666666666666665 2.5 1
-0.9999999999999999 2.5 1
-1.333333333333333 2.5 1
-1.666666666666667 2.5 1
2 1 0 16
189
190
191
192
193
194
195
196
197
198
199
200
201
202
203
204
2.7 -2 0.2000000000005774
2.7 -2 0.4000000000011266
2.7 -2 0.6000000000008989
2.7 -2 0.7999999999998946
2.900000000000001 -2 0.2000000000003223
2.900000000000001 -2 0.4000000000005883
2.9 -2 0.6000000000004104
2.9 -2 0.7999999999997891
3.1 -2 0.2000000000000671
3.1 -2 0.4000000000000498
3.100000000000001 -2 0.5999999999999219
3.100000000000001 -2 0.7999999999996834
3.3 -2 0.199999999999812
3.299999999999999 -2 0.3999999999995115
3.3 -2 0.5999999999994334
3.3 -2 0.7999999999995779
2 13 0 20
205
206
207
208
209
210
211
212
213
214
215
216
217
218
219
220
221
222
223
224
2.7 -1.666666666666667 0
2.7 -1.333333333333333 0
2.7 -1 0
2.7 -0.6666666666666667 0
2.7 -0.3333333333333333 0
2.9 -1.666666666666667 0
2.9 -1.333333333333333 0
2.9 -1 0
2.9 -0.6666666666666667 0
2.9 -0.3333333333333333 0
3.1 -1.666666666666667 0
3.1 -1.333333333333333 0
3.1 -1 0
3.1 -0.6666666666666667 0
3.1 -0.3333333333333333 0
3.3 -1.666666666666667 0
3.3 -1.333333333333333 0
3.3 -1 0
3.3 -0.6666666666666667 0
3.3 -0.3333333333333333 0
2 17 0 20
225
226
227
228
229
230
231
232
233
234
235
236
237
238
239
240
241
242
243
244
3.5 -1.666666666666667 0.1999999999995569
3.5 -1.333333333333333 0.1999999999995569
3.5 -1 0.1999999999995569
3.5 -0.6666666666666667 0.1999999999995569
3.5 -0.3333333333333333 0.1999999999995569
3.5 -1.666666666666667 0.3999999999989731
3.5 -1.333333333333333 0.3999999999989731
3.5 -1 0.3999999999989731
3.5 -0.6666666666666667 0.3999999999989731
3.5 -0.3333333333333333 0.3999999999989731
3.5 -1.666666666666667 0.599999999998945
3.5 -1.333333333333333 0.599999999998945
3.5 -1 0.599999999998945
3.5 -0.6666666666666667 0.599999999998945
3.5 -0.3333333333333333 0.599999999998945
3.5 -1.666666666666667 0.7999999999994725
3.5 -1.333333333333333 0.7999999999994725
3.5 -1 0.7999999999994725
3.5 -0.6666666666666667 0.7999999999994725
3.5 -0.3333333333333333 0.7999999999994725
2 21 0 20
245
246
247
248
249
250
251
252
253
254
255
256
257
258
259
260
261
262
263
264
3.3 -1.666666666666667 1
3.3 -1.333333333333333 1
3.3 -1 1
3.3 -0.6666666666666667 1
3.3 -0.3333333333333333 1
3.1 -1.666666666666667 1
3.1 -1.333333333333333 1
3.1 -1 1
3.1 -0.6666666666666667 1
3.1 -0.3333333333333333 1
2.9 -1.666666666666667 1
2.9 -1.333333333333333 1
2.9 -1 1
2.9 -0.6666666666666667 1
2.9 -0.3333333333333333 1
2.7 -1.666666666666667 1
2.7 -1.333333333333333 1
2.7 -1 1
2.7 -0.6666666666666667 1
2.7 -0.3333333333333333 1
2 25 0 20
265
266
267
268
269
270
271
272
273
274
275
276
277
278
279
280
281
282
283
284
2.5 -1.666666666666667 0.8
2.5 -1.333333333333333 0.8
2.5 -1 0.8
2.5 -0.6666666666666667 0.8
2.5 -0.3333333333333333 0.8
2.5 -1.666666666666667 0.6000000000013874
2.5 -1.333333333333333 0.6000000000013874
2.5 -1 0.6000000000013874
2.5 -0.6666666666666667 0.6000000000013874
2.5 -0.3333333333333333 0.6000000000013874
2.5 -1.666666666666667 0.400000000001665
2.5 -1.333333333333333 0.400000000001665
2.5 -1 0.400000000001665
2.5 -0.6666666666666667 0.400000000001665
2.5 -0.3333333333333333 0.400000000001665
2.5 -1.666666666666667 0.2000000000008325
2.5 -1.333333333333333 0.2000000000008325
2.5 -1 0.2000000000008325
2.5 -0.6666666666666667 0.2000000000008325
2.5 -0.3333333333333333 0.2000000000008325
2 26 0 16
285
286
287
288
289
290
291
292
293
294
295
296
297
298
299
300
2.7 0 0.2000000000005774
2.7 0 0.4000000000011266
2.7 0 0.6000000000008989
2.7 0 0.7999999999998946
2.900000000000001 0 0.2000000000003223
2.900000000000001 0 0.4000000000005883
2.9 0 0.6000000000004104
2.9 0 0.7999999999997891
3.1 0 0.2000000000000671
3.1 0 0.4000000000000498
3.100000000000001 0 0.5999999999999219
3.100000000000001 0 0.7999999999996834
3.3 0 0.199999999999812
3.299999999999999 0 0.3999999999995115
3.3 0 0.5999999999994334
3.3 0 0.7999999999995779
2 35 0 68
301
302
303
304
305
306
307
308
309
310
311
312
313
314
315
316
317
318
319
320
321
322
323
324
325
326
327
328
329
330
331
332
333
334
335
336
337
338
339
340
341
342
343
344
345
346
347
348
349
350
351
352
353
354
355
356
357
358
359
360
361
362
363
364
365
366
367
368
2.689725684847713 0.2353205054186771 0
2.658980933132962 0.4688500797007119 0
2.607999730980485 0.698811421776806 0
2.537170076121953 0.9234543869793056 0
2.447031024998955 1.141069306699888 0
2.338268590217984 1.35 0
2.211710519580278 1.548656378147824 0
2.068319996421241 1.735526546153656 0
1.909188309203679 1.909188309203678 0
1.735526546153656 2.068319996421241 0
1.548656378147825 2.211710519580278 0
1.35 2.338268590217984 0
1.141069306699888 2.447031024998955 0
0.9234543869793059 2.537170076121952 0
0.698811421776806 2.607999730980485 0
0.4688500797007121 2.658980933132962 0
0.2353205054186776 2.689725684847713 0
2.888964624466062 0.2527516539682087 0
2.855942483735403 0.5035797152340979 0
2.801184896238298 0.7505752307973101 0
2.725108600279134 0.9918584156444392 0
2.628292582406285 1.225592959048028 0
2.511473670974872 1.45 0
2.375540928438076 1.663371665418033 0
2.221528885045036 1.864084068090964 0
2.050609665440988 2.050609665440988 0
1.864084068090964 2.221528885045036 0
1.663371665418034 2.375540928438076 0
1.45 2.511473670974872 0
1.225592959048028 2.628292582406285 0
0.9918584156444396 2.725108600279134 0
0.7505752307973101 2.801184896238298 0
0.5035797152340982 2.855942483735403 0
0.2527516539682093 2.888964624466062 0
3.088203564084411 0.2701828025177403 0
3.052904034337845 0.5383093507674841 0
2.994370061496112 0.8023390398178143 0
2.913047124436316 1.060262444309573 0
2.809554139813615 1.310116611396168 0
2.68467875173176 1.55 0
2.539371337295875 1.778086952688243 0
2.374737773668832 1.992641590028272 0
2.192031021678297 2.192031021678297 0
1.992641590028272 2.374737773668832 0
1.778086952688243 2.539371337295875 0
1.55 2.68467875173176 0
1.310116611396168 2.809554139813615 0
1.060262444309573 2.913047124436316 0
0.8023390398178143 2.994370061496112 0
0.5383093507674843 3.052904034337845 0
0.2701828025177409 3.088203564084411 0
3.28744250370276 0.2876139510672719 0
3.249865584940286 0.57303898630087 0
3.187555226753925 0.8541028488383184 0
3.100985648593498 1.128666472974707 0
2.990815697220945 1.394640263744308 0
2.857883832488648 1.65 0
2.703201746153673 1.892802239958452 0
2.527946662292627 2.121199111965579 0
2.333452377915607 2.333452377915607 0
2.12119911196558 2.527946662292627 0
1.892802239958452 2.703201746153673 0
1.65 2.857883832488647 0
1.394640263744308 2.990815697220945 0
1.128666472974707 3.100985648593497 0
0.8541028488383184 3.187555226753925 0
0.5730389863008704 3.249865584940286 0
0.2876139510672726 3.28744250370276 0
2 39 0 68
369
370
371
372
373
374
375
376
377
378
379
380
381
382
383
384
385
386
387
388
389
390
391
392
393
394
395
396
397
398
399
400
401
402
403
404
405
406
407
408
409
410
411
412
413
414
415
416
417
418
419
420
421
422
423
424
425
426
427
428
429
430
431
432
433
434
435
436
3.48668144332111 0.3050450996168036 0.1999999999995569
3.446827135542728 0.6077686218342562 0.1999999999995569
3.380740392011739 0.9058666578588226 0.1999999999995569
3.288924172750679 1.19707050163984 0.1999999999995569
3.172077254628275 1.479163916092448 0.1999999999995569
3.031088913245536 1.75 0.1999999999995569
2.867032155011471 2.007517527228661 0.1999999999995569
2.681155550916423 2.249756633902887 0.1999999999995569
2.474873734152916 2.474873734152916 0.1999999999995569
2.249756633902888 2.681155550916423 0.1999999999995569
2.007517527228662 2.867032155011471 0.1999999999995569
1.75 3.031088913245535 0.1999999999995569
1.479163916092448 3.172077254628275 0.1999999999995569
1.197070501639841 3.288924172750679 0.1999999999995569
0.9058666578588226 3.380740392011739 0.1999999999995569
0.6077686218342564 3.446827135542728 0.1999999999995569
0.3050450996168043 3.48668144332111 0.1999999999995569
3.48668144332111 0.3050450996168036 0.3999999999989731
3.446827135542728 0.6077686218342562 0.3999999999989731
3.380740392011739 0.9058666578588226 0.3999999999989731
3.288924172750679 1.19707050163984 0.3999999999989731
3.172077254628275 1.479163916092448 0.3999999999989731
3.031088913245536 1.75 0.3999999999989731
2.867032155011471 2.007517527228661 0.3999999999989731
2.681155550916423 2.249756633902887 0.3999999999989731
2.474873734152916 2.474873734152916 0.3999999999989731
2.249756633902888 2.681155550916423 0.3999999999989731
2.007517527228662 2.867032155011471 0.3999999999989731
1.75 3.031088913245535 0.3999999999989731
1.479163916092448 3.172077254628275 0.3999999999989731
1.197070501639841 3.288924172750679 0.3999999999989731
0.9058666578588226 3.380740392011739 0.3999999999989731
0.6077686218342564 3.446827135542728 0.3999999999989731
0.3050450996168043 3.48668144332111 0.3999999999989731
3.48668144332111 0.3050450996168036 0.599999999998945
3.446827135542728 0.6077686218342562 0.599999999998945
3.380740392011739 0.9058666578588226 0.599999999998945
3.288924172750679 1.19707050163984 0.599999999998945
3.172077254628275 1.479163916092448 0.599999999998945
3.031088913245536 1.75 0.599999999998945
2.867032155011471 2.007517527228661 0.599999999998945
2.681155550916423 2.249756633902887 0.599999999998945
2.474873734152916 2.474873734152916 0.599999999998945
2.249756633902888 2.681155550916423 0.599999999998945
2.007517527228662 2.867032155011471 0.599999999998945
1.75 3.031088913245535 0.599999999998945
1.479163916092448 3.172077254628275 0.599999999998945
1.197070501639841 3.288924172750679 0.599999999998945
0.9058666578588226 3.380740392011739 0.599999999998945
0.6077686218342564 3.446827135542728 0.599999999998945
0.3050450996168043 3.48668144332111 0.599999999998945
3.48668144332111 0.3050450996168036 0.7999999999994725
3.446827135542728 0.6077686218342562 0.7999999999994725
3.380740392011739 0.9058666578588226 0.7999999999994725
3.288924172750679 1.19707050163984 0.7999999999994725
3.172077254628275 1.479163916092448 0.7999999999994725
3.031088913245536 1.75 0.7999999999994725
2.867032155011471 2.007517527228661 0.7999999999994725
2.681155550916423 2.249756633902887 0.7999999999994725
2.474873734152916 2.474873734152916 0.7999999999994725
2.249756633902888 2.681155550916423 0.7999999999994725
2.007517527228662 2.867032155011471 0.7999999999994725
1.75 3.031088913245535 0.7999999999994725
1.479163916092448 3.172077254628275 0.7999999999994725
1.197070501639841 3.288924172750679 0.7999999999994725
0.9058666578588226 3.380740392011739 0.7999999999994725
0.6077686218342564 3.446827135542728 0.7999999999994725
0.3050450996168043 3.48668144332111 0.7999999999994725
2 43 0 68
437
438
439
440
441
442
443
444
445
446
447
448
449
450
451
452
453
454
455
456
457
458
459
460
461
462
463
464
465
466
467
468
469
470
471
472
473
474
475
476
477
478
479
480
481
482
483
484
485
486
487
488
489
490
491
492
493
494
495
496
497
498
499
500
501
502
503
504
3.28744250370276 0.2876139510672719 1
3.249865584940286 0.57303898630087 1
3.187555226753925 0.8541028488383184 1
3.100985648593498 1.128666472974707 1
2.990815697220945 1.394640263744308 1
2.857883832488648 1.65 1
2.703201746153673 1.892802239958452 1
2.527946662292627 2.121199111965579 1
2.333452377915607 2.333452377915607 1
2.12119911196558 2.527946662292627 1
1.892802239958452 2.703201746153673 1
1.65 2.857883832488647 1
1.394640263744308 2.990815697220945 1
1.128666472974707 3.100985648593497 1
0.8541028488383184 3.187555226753925 1
0.5730389863008704 3.249865584940286 1
0.2876139510672726 3.28744250370276 1
3.088203564084411 0.2701828025177403 1
3.052904034337845 0.5383093507674841 1
2.994370061496112 0.8023390398178143 1
2.913047124436316 1.060262444309573 1
2.809554139813615 1.310116611396168 1
2.68467875173176 1.55 1
2.539371337295875 1.778086952688243 1
2.374737773668832 1.992641590028272 1
2.192031021678297 2.192031021678297 1
1.992641590028272 2.374737773668832 1
1.778086952688243 2.539371337295875 1
1.55 2.68467875173176 1
1.310116611396168 2.809554139813615 1
1.060262444309573 2.913047124436316 1
0.8023390398178143 2.994370061496112 1
0.5383093507674843 3.052904034337845 1
0.2701828025177409 3.088203564084411 1
2.888964624466062 0.2527516539682087 1
2.855942483735403 0.5035797152340979 1
2.801184896238298 0.7505752307973101 1
2.725108600279134 0.9918584156444392 1
2.628292582406285 1.225592959048028 1
2.511473670974872 1.45 1
2.375540928438076 1.663371665418033 1
2.221528885045036 1.864084068090964 1
2.050609665440988 2.050609665440988 1
1.864084068090964 2.221528885045036 1
1.663371665418034 2.375540928438076 1
1.45 2.511473670974872 1
1.225592959048028 2.628292582406285 1
0.9918584156444396 2.725108600279134 1
0.7505752307973101 2.801184896238298 1
0.5035797152340982 2.855942483735403 1
0.2527516539682093 2.888964624466062 1
2.689725684847713 0.2353205054186771 1
2.658980933132962 0.4688500797007119 1
2.607999730980485 0.698811421776806 1
2.537170076121953 0.9234543869793056 1
2.447031024998955 1.141069306699888 1
2.338268590217984 1.35 1
2.211710519580278 1.548656378147824 1
2.068319996421241 1.735526546153656 1
1.909188309203679 1.909188309203678 1
1.735526546153656 2.068319996421241 1
1.548656378147825 2.211710519580278 1
1.35 2.338268590217984 1
1.141069306699888 2.447031024998955 1
0.9234543869793059 2.537170076121952 1
0.698811421776806 2.607999730980485 1
0.4688500797007121 2.658980933132962 1
0.2353205054186776 2.689725684847713 1
2 47 0 68
505
506
507
508
509
510
511
512
513
514
515
516
517
518
519
520
521
522
523
524
525
526
527
528
529
530
531
532
533
534
535
536
537
538
539
540
541
542
543
544
545
546
547
548
549
550
551
552
553
554
555
556
557
558
559
560
561
562
563
564
565
566
567
568
569
570
571
572
2.490486745229364 0.2178893568691454 0.8
2.46201938253052 0.4341204441673258 0.8
2.414814565722671 0.6470476127563018 0.8
2.349231551964771 0.8550503583141718 0.8
2.265769467591625 1.056545654351749 0.8
2.165063509461097 1.25 0.8
2.047880110722479 1.433941090877615 0.8
1.915111107797445 1.606969024216348 0.8
1.767766952966369 1.767766952966369 0.8
1.606969024216348 1.915111107797445 0.8
1.433941090877615 2.047880110722479 0.8
1.25 2.165063509461096 0.8
1.056545654351749 2.265769467591625 0.8
0.8550503583141721 2.349231551964771 0.8
0.6470476127563018 2.414814565722671 0.8
0.434120444167326 2.46201938253052 0.8
0.2178893568691459 2.490486745229364 0.8
2.490486745229364 0.2178893568691454 0.6000000000013874
2.46201938253052 0.4341204441673258 0.6000000000013874
2.414814565722671 0.6470476127563018 0.6000000000013874
2.349231551964771 0.8550503583141718 0.6000000000013874
2.265769467591625 1.056545654351749 0.6000000000013874
2.165063509461097 1.25 0.6000000000013874
2.047880110722479 1.433941090877615 0.6000000000013874
1.915111107797445 1.606969024216348 0.6000000000013874
1.767766952966369 1.767766952966369 0.6000000000013874
1.606969024216348 1.915111107797445 0.6000000000013874
1.433941090877615 2.047880110722479 0.6000000000013874
1.25 2.165063509461096 0.6000000000013874
1.056545654351749 2.265769467591625 0.6000000000013874
0.8550503583141721 2.349231551964771 0.6000000000013874
0.6470476127563018 2.414814565722671 0.6000000000013874
0.434120444167326 2.46201938253052 0.6000000000013874
0.2178893568691459 2.490486745229364 0.6000000000013874
2.490486745229364 0.2178893568691454 0.400000000001665
2.46201938253052 0.4341204441673258 0.400000000001665
2.414814565722671 0.6470476127563018 0.400000000001665
2.349231551964771 0.8550503583141718 0.400000000001665
2.265769467591625 1.056545654351749 0.400000000001665
2.165063509461097 1.25 0.400000000001665
2.047880110722479 1.433941090877615 0.400000000001665
1.915111107797445 1.606969024216348 0.400000000001665
1.767766952966369 1.767766952966369 0.400000000001665
1.606969024216348 1.915111107797445 0.400000000001665
1.433941090877615 2.047880110722479 0.400000000001665
1.25 2.165063509461096 0.400000000001665
1.056545654351749 2.265769467591625 0.400000000001665
0.8550503583141721 2.349231551964771 0.400000000001665
0.6470476127563018 2.414814565722671 0.400000000001665
0.434120444167326 2.46201938253052 0.400000000001665
0.2178893568691459 2.490486745229364 0.400000000001665
2.490486745229364 0.2178893568691454 0.2000000000008325
2.46201938253052 0.4341204441673258 0.2000000000008325
2.414814565722671 0.6470476127563018 0.2000000000008325
2.349231551964771 0.8550503583141718 0.2000000000008325
2.265769467591625 1.056545654351749 0.2000000000008325
2.165063509461097 1.25 0.2000000000008325
2.047880110722479 1.433941090877615 0.2000000000008325
1.915111107797445 1.606969024216348 0.2000000000008325
1.767766952966369 1.767766952966369 0.2000000000008325
1.606969024216348 1.915111107797445 0.2000000000008325
1.433941090877615 2.047880110722479 0.2000000000008325
1.25 2.165063509461096 0.2000000000008325
1.056545654351749 2.265769467591625 0.2000000000008325
0.8550503583141721 2.349231551964771 0.2000000000008325
0.6470476127563018 2.414814565722671 0.2000000000008325
0.434120444167326 2.46201938253052 0.2000000000008325
0.2178893568691459 2.490486745229364 0.2000000000008325
2 48 0 16
573
574
575
576
577
578
579
580
581
582
583
584
585
586
587
588
1.653273178848927e-16 2.7 0.2000000000005774
1.653273178848927e-16 2.7 0.4000000000011266
1.653273178848927e-16 2.7 0.6000000000008989
1.653273178848927e-16 2.7 0.7999999999998946
1.775737858763663e-16 2.900000000000001 0.2000000000003223
1.775737858763663e-16 2.900000000000001 0.4000000000005883
1.775737858763662e-16 2.9 0.6000000000004104
1.775737858763662e-16 2.9 0.7999999999997891
1.898202538678397e-16 3.1 0.2000000000000671
1.898202538678397e-16 3.1 0.4000000000000498
1.898202538678398e-16 3.100000000000001 0.5999999999999219
1.898202538678398e-16 3.100000000000001 0.7999999999996834
2.020667218593133e-16 3.3 0.199999999999812
2.020667218593133e-16 3.299999999999999 0.3999999999995115
2.020667218593133e-16 3.3 0.5999999999994334
2.020667218593133e-16 3.3 0.7999999999995779
2 57 0 20
589
590
591
592
593
594
595
596
597
598
599
600
601
602
603
604
605
606
607
608
-0.3333333333333331 2.7 0
-0.6666666666666665 2.7 0
-0.9999999999999999 2.7 0
-1.333333333333333 2.7 0
-1.666666666666667 2.7 0
-0.3333333333333331 2.9 0
-0.6666666666666664 2.9 0
-0.9999999999999998 2.9 0
-1.333333333333333 2.9 0
-1.666666666666667 2.9 0
-0.3333333333333331 3.1 0
-0.6666666666666664 3.1 0
-0.9999999999999998 3.1 0
-1.333333333333333 3.1 0
-1.666666666666667 3.1 0
-0.3333333333333331 3.3 0
-0.6666666666666664 3.3 0
-0.9999999999999998 3.3 0
-1.333333333333333 3.3 0
-1.666666666666667 3.3 0
2 61 0 20
609
610
611
612
613
614
615
616
617
618
619
620
621
622
623
624
625
626
627
628
-0.3333333333333331 3.5 0.1999999999995569
-0.6666666666666664 3.5 0.1999999999995569
-0.9999999999999998 3.5 0.1999999999995569
-1.333333333333333 3.5 0.1999999999995569
-1.666666666666667 3.5 0.1999999999995569
-0.3333333333333331 3.5 0.3999999999989731
-0.6666666666666664 3.5 0.3999999999989731
-0.9999999999999998 3.5 0.3999999999989731
-1.333333333333333 3.5 0.3999999999989731
-1.666666666666667 3.5 0.3999999999989731
-0.3333333333333331 3.5 0.599999999998945
-0.6666666666666664 3.5 0.599999999998945
-0.9999999999999998 3.5 0.599999999998945
-1.333333333333333 3.5 0.599999999998945
-1.666666666666667 3.5 0.599999999998945
-0.3333333333333331 3.5 0.7999999999994725
-0.6666666666666664 3.5 0.7999999999994725
-0.9999999999999998 3.5 0.7999999999994725
-1.333333333333333 3.5 0.7999999999994725
-1.666666666666667 3.5 0.7999999999994725
2 65 0 20
629
630
631
632
633
634
635
636
637
638
639
640
641
642
643
644
645
646
647
648
-0.3333333333333331 3.3 1
-0.6666666666666664 3.3 1
-0.9999999999999998 3.3 1
-1.333333333333333 3.3 1
-1.666666666666667 3.3 1
-0.3333333333333331 3.1 1
-0.6666666666666664 3.1 1
-0.9999999999999998 3.1 1
-1.333333333333333 3.1 1
-1.666666666666667 3.1 1
-0.3333333333333331 2.9 1
-0.6666666666666664 2.9 1
-0.9999999999999998 2.9 1
-1.333333333333333 2.9 1
-1.666666666666667 2.9 1
-0.3333333333333331 2.7 1
-0.6666666666666665 2.7 1
-0.9999999999999999 2.7 1
-1.333333333333333 2.7 1
-1.666666666666667 2.7 1
2 69 0 20
649
650
651
652
653
654
655
656
657
658
659
660
661
662
663
664
665
666
667
668
-0.3333333333333331 2.5 0.8
-0.6666666666666665 2.5 0.8
-0.9999999999999999 2.5 0.8
-1.333333333333333 2.5 0.8
-1.666666666666667 2.5 0.8
-0.3333333333333331 2.5 0.6000000000013874
-0.6666666666666665 2.5 0.6000000000013874
-0.9999999999999999 2.5 0.6000000000013874
-1.333333333333333 2.5 0.6000000000013874
-1.666666666666667 2.5 0.6000000000013874
-0.3333333333333331 2.5 0.400000000001665
-0.6666666666666665 2.5 0.400000000001665
-0.9999999999999999 2.5 0.400000000001665
-1.333333333333333 2.5 0.400000000001665
-1.666666666666667 2.5 0.400000000001665
-0.3333333333333331 2.5 0.2000000000008325
-0.6666666666666665 2.5 0.2000000000008325
-0.9999999999999999 2.5 0.2000000000008325
-1.333333333333333 2.5 0.2000000000008325
-1.666666666666667 2.5 0.2000000000008325
2 70 0 16
669
670
671
672
673
674
675
676
677
678
679
680
681
682
683
684
-2 2.7 0.2000000000005774
-2 2.7 0.4000000000011266
-2 2.7 0.6000000000008989
-2 2.7 0.7999999999998946
-2 2.900000000000001 0.2000000000003223
-2 2.900000000000001 0.4000000000005883
-2 2.9 0.6000000000004104
-2 2.9 0.7999999999997891
-2 3.1 0.2000000000000671
-2 3.1 0.4000000000000498
-2 3.100000000000001 0.5999999999999219
-2 3.100000000000001 0.7999999999996834
-2 3.3 0.199999999999812
-2 3.299999999999999 0.3999999999995115
-2 3.3 0.5999999999994334
-2 3.3 0.7999999999995779
3 1 0 80
685
686
687
688
689
690
691
692
693
694
695
696
697
698
699
700
701
702
703
704
705
706
707
708
709
710
711
712
713
714
715
716
717
718
719
720
721
722
723
724
725
726
727
728
729
730
731
732
733
734
735
736
737
738
739
740
741
742
743
744
745
746
747
748
749
750
751
752
753
754
755
756
757
758
759
760
761
762
763
764
2.7 -1.666666666666667 0.2000000000005774
2.7 -1.333333333333333 0.2000000000005774
2.7 -1 0.2000000000005774
2.7 -0.6666666666666667 0.2000000000005774
2.7 -0.3333333333333333 0.2000000000005774
2.7 -1.666666666666667 0.4000000000011266
2.7 -1.333333333333333 0.4000000000011266
2.7 -1 0.4000000000011266
2.7 -0.6666666666666667 0.4000000000011266
2.7 -0.3333333333333333 0.4000000000011266
2.7 -1.666666666666667 0.6000000000008989
2.7 -1.333333333333333 0.6000000000008989
2.7 -1 0.6000000000008989
2.7 -0.6666666666666667 0.6000000000008989
2.7 -0.3333333333333333 0.6000000000008989
2.7 -1.666666666666667 0.7999999999998946
2.7 -1.333333333333333 0.7999999999998946
2.7 -1 0.7999999999998946
2.7 -0.6666666666666667 0.7999999999998946
2.7 -0.3333333333333333 0.7999999999998946
2.900000000000001 -1.666666666666667 0.2000000000003223
2.900000000000001 -1.333333333333333 0.2000000000003223
2.900000000000001 -1 0.2000000000003223
2.900000000000001 -0.6666666666666667 0.2000000000003223
2.900000000000001 -0.3333333333333333 0.2000000000003223
2.900000000000001 -1.666666666666667 0.4000000000005883
2.900000000000001 -1.333333333333333 0.4000000000005883
2.900000000000001 -1 0.4000000000005883
2.900000000000001 -0.6666666666666667 0.4000000000005883
2.900000000000001 -0.3333333333333333 0.4000000000005883
2.9 -1.666666666666667 0.6000000000004104
2.9 -1.333333333333333 0.6000000000004104
2.9 -1 0.6000000000004104
2.9 -0.6666666666666667 0.6000000000004104
2.9 -0.3333333333333333 0.6000000000004104
2.9 -1.666666666666667 0.7999999999997891
2.9 -1.333333333333333 0.7999999999997891
2.9 -1 0.7999999999997891
2.9 -0.6666666666666667 0.7999999999997891
2.9 -0.3333333333333333 0.7999999999997891
3.1 -1.666666666666667 0.2000000000000671
3.1 -1.333333333333333 0.2000000000000671
3.1 -1 0.2000000000000671
3.1 -0.6666666666666667 0.2000000000000671
3.1 -0.3333333333333333 0.2000000000000671
3.1 -1.666666666666667 0.4000000000000498
3.1 -1.333333333333333 0.4000000000000498
3.1 -1 0.4000000000000498
3.1 -0.6666666666666667 0.4000000000000498
3.1 -0.3333333333333333 0.4000000000000498
3.100000000000001 -1.666666666666667 0.5999999999999219
3.100000000000001 -1.333333333333333 0.5999999999999219
3.100000000000001 -1 0.5999999999999219
3.100000000000001 -0.6666666666666667 0.5999999999999219
3.100000000000001 -0.3333333333333333 0.5999999999999219
3.100000000000001 -1.666666666666667 0.7999999999996834
3.100000000000001 -1.333333333333333 0.7999999999996834
3.100000000000001 -1 0.7999999999996834
3.100000000000001 -0.6666666666666667 0.7999999999996834
3.100000000000001 -0.3333333333333333 0.7999999999996834
3.3 -1.666666666666667 0.199999999999812
3.3 -1.333333333333333 0.199999999999812
3.3 -1 0.199999999999812
3.3 -0.6666666666666667 0.199999999999812
3.3 -0.3333333333333333 0.199999999999812
3.299999999999999 -1.666666666666667 0.3999999999995115
3.299999999999999 -1.333333333333333 0.3999999999995115
3.299999999999999 -1 0.3999999999995115
3.299999999999999 -0.6666666666666667 0.3999999999995115
3.299999999999999 -0.3333333333333333 0.3999999999995115
3.3 -1.666666666666667 0.5999999999994334
3.3 -1.333333333333333 0.5999999999994334
3.3 -1 0.5999999999994334
3.3 -0.6666666666666667 0.5999999999994334
3.3 -0.3333333333333333 0.5999999999994334
3.3 -1.666666666666667 0.7999999999995779
3.3 -1.333333333333333 0.7999999999995779
3.3 -1 0.7999999999995779
3.3 -0.6666666666666667 0.7999999999995779
3.3 -0.3333333333333333 0.7999999999995779
3 2 0 272
765
766
767
768
769
770
771
772
773
774
775
776
777
778
779
780
781
782
783
784
785
786
787
788
789
790
791
792
793
794
795
796
797
798
799
800
801
802
803
804
805
806
807
808
809
810
811
812
813
814
815
816
817
818
819
820
821
822
823
824
825
826
827
828
829
830
831
832
833
834
835
836
837
838
839
840
841
842
843
844
845
846
847
848
849
850
851
852
853
854
855
856
857
858
859
860
861
862
863
864
865
866
867
868
869
870
871
872
873
874
875
876
877
878
879
880
881
882
883
884
885
886
887
888
889
890
891
892
893
894
895
896
897
898
899
900
901
902
903
904
905
906
907
908
909
910
911
912
913
914
915
916
917
918
919
920
921
922
923
924
925
926
927
928
929
930
931
932
933
934
935
936
937
938
939
940
941
942
943
944
945
946
947
948
949
950
951
952
953
954
955
956
957
958
959
960
961
962
963
964
965
966
967
968
969
970
971
972
973
974
975
976
977
978
979
980
981
982
983
984
985
986
987
988
989
990
991
992
993
994
995
996
997
998
999
1000
1001
1002
1003
1004
1005
1006
1007
1008
1009
1010
1011
1012
1013
1014
1015
1016
1017
1018
1019
1020
1021
1022
1023
1024
1025
1026
1027
1028
1029
1030
1031
1032
1033
1034
1035
1036
2.689725684847713 0.2353205054186771 0.2000000000005774
2.658980933132962 0.4688500797007119 0.2000000000005774
2.607999730980485 0.698811421776806 0.2000000000005774
2.537170076121953 0.9234543869793056 0.2000000000005774
2.447031024998955 1.141069306699888 0.2000000000005774
2.338268590217984 1.35 0.2000000000005774
2.211710519580278 1.548656378147824 0.2000000000005774
2.068319996421241 1.735526546153656 0.2000000000005774
1.909188309203679 1.909188309203678 0.2000000000005774
1.735526546153656 2.068319996421241 0.2000000000005774
1.548656378147825 2.211710519580278 0.2000000000005774
1.35 2.338268590217984 0.2000000000005774
1.141069306699888 2.447031024998955 0.2000000000005774
0.9234543869793059 2.537170076121952 0.2000000000005774
0.698811421776806 2.607999730980485 0.2000000000005774
0.4688500797007121 2.658980933132962 0.2000000000005774
0.2353205054186776 2.689725684847713 0.2000000000005774
2.689725684847713 0.235320505418677 0.4000000000011266
2.658980933132961 0.4688500797007119 0.4000000000011266
2.607999730980484 0.6988114217768059 0.4000000000011266
2.537170076121952 0.9234543869793055 0.4000000000011266
2.447031024998954 1.141069306699888 0.4000000000011266
2.338268590217984 1.35 0.4000000000011266
2.211710519580278 1.548656378147824 0.4000000000011266
2.06831999642124 1.735526546153656 0.4000000000011266
1.909188309203678 1.909188309203678 0.4000000000011266
1.735526546153656 2.06831999642124 0.4000000000011266
1.548656378147824 2.211710519580278 0.4000000000011266
1.35 2.338268590217984 0.4000000000011266
1.141069306699888 2.447031024998954 0.4000000000011266
0.9234543869793057 2.537170076121952 0.4000000000011266
0.6988114217768059 2.607999730980484 0.4000000000011266
0.4688500797007121 2.658980933132961 0.4000000000011266
0.2353205054186776 2.689725684847713 0.4000000000011266
2.689725684847713 0.2353205054186771 0.6000000000008989
2.658980933132962 0.4688500797007119 0.6000000000008989
2.607999730980485 0.698811421776806 0.6000000000008989
2.537170076121953 0.9234543869793056 0.6000000000008989
2.447031024998955 1.141069306699888 0.6000000000008989
2.338268590217984 1.35 0.6000000000008989
2.211710519580278 1.548656378147824 0.6000000000008989
2.068319996421241 1.735526546153656 0.6000000000008989
1.909188309203679 1.909188309203678 0.6000000000008989
1.735526546153656 2.068319996421241 0.6000000000008989
1.548656378147825 2.211710519580278 0.6000000000008989
1.35 2.338268590217984 0.6000000000008989
1.141069306699888 2.447031024998955 0.6000000000008989
0.9234543869793059 2.537170076121952 0.6000000000008989
0.698811421776806 2.607999730980485 0.6000000000008989
0.4688500797007121 2.658980933132962 0.6000000000008989
0.2353205054186776 2.689725684847713 0.6000000000008989
2.689725684847713 0.2353205054186771 0.7999999999998946
2.658980933132962 0.4688500797007119 0.7999999999998946
2.607999730980485 0.698811421776806 0.7999999999998946
2.537170076121953 0.9234543869793056 0.7999999999998946
2.447031024998955 1.141069306699888 0.7999999999998946
2.338268590217984 1.35 0.7999999999998946
2.211710519580278 1.548656378147824 0.7999999999998946
2.068319996421241 1.735526546153656 0.7999999999998946
1.909188309203679 1.909188309203678 0.7999999999998946
1.735526546153656 2.068319996421241 0.7999999999998946
1.548656378147825 2.211710519580278 0.7999999999998946
1.35 2.338268590217984 0.7999999999998946
1.141069306699888 2.447031024998955 0.7999999999998946
0.9234543869793059 2.537170076121952 0.7999999999998946
0.698811421776806 2.607999730980485 0.7999999999998946
0.4688500797007121 2.658980933132962 0.7999999999998946
0.2353205054186776 2.689725684847713 0.7999999999998946
2.888964624466063 0.2527516539682088 0.2000000000003223
2.855942483735404 0.5035797152340981 0.2000000000003223
2.801184896238299 0.7505752307973104 0.2000000000003223
2.725108600279135 0.9918584156444396 0.2000000000003223
2.628292582406285 1.225592959048029 0.2000000000003223
2.511473670974873 1.45 0.2000000000003223
2.375540928438077 1.663371665418034 0.2000000000003223
2.221528885045037 1.864084068090964 0.2000000000003223
2.050609665440989 2.050609665440988 0.2000000000003223
1.864084068090965 2.221528885045037 0.2000000000003223
1.663371665418034 2.375540928438077 0.2000000000003223
1.450000000000001 2.511473670974873 0.2000000000003223
1.225592959048029 2.628292582406285 0.2000000000003223
0.9918584156444399 2.725108600279135 0.2000000000003223
0.7505752307973104 2.801184896238299 0.2000000000003223
0.5035797152340984 2.855942483735404 0.2000000000003223
0.2527516539682093 2.888964624466063 0.2000000000003223
2.888964624466063 0.2527516539682088 0.4000000000005883
2.855942483735404 0.5035797152340982 0.4000000000005883
2.801184896238299 0.7505752307973105 0.4000000000005883
2.725108600279136 0.9918584156444397 0.4000000000005883
2.628292582406286 1.225592959048029 0.4000000000005883
2.511473670974874 1.45 0.4000000000005883
2.375540928438077 1.663371665418034 0.4000000000005883
2.221528885045037 1.864084068090965 0.4000000000005883
2.050609665440989 2.050609665440989 0.4000000000005883
1.864084068090965 2.221528885045037 0.4000000000005883
1.663371665418035 2.375540928438077 0.4000000000005883
1.450000000000001 2.511473670974873 0.4000000000005883
1.225592959048029 2.628292582406286 0.4000000000005883
0.99185841564444 2.725108600279135 0.4000000000005883
0.7505752307973105 2.801184896238299 0.4000000000005883
0.5035797152340984 2.855942483735404 0.4000000000005883
0.2527516539682094 2.888964624466063 0.4000000000005883
2.888964624466062 0.2527516539682087 0.6000000000004104
2.855942483735403 0.5035797152340979 0.6000000000004104
2.801184896238298 0.7505752307973101 0.6000000000004104
2.725108600279134 0.9918584156444392 0.6000000000004104
2.628292582406285 1.225592959048028 0.6000000000004104
2.511473670974872 1.45 0.6000000000004104
2.375540928438076 1.663371665418033 0.6000000000004104
2.221528885045036 1.864084068090964 0.6000000000004104
2.050609665440988 2.050609665440988 0.6000000000004104
1.864084068090964 2.221528885045036 0.6000000000004104
1.663371665418034 2.375540928438076 0.6000000000004104
1.45 2.511473670974872 0.6000000000004104
1.225592959048028 2.628292582406285 0.6000000000004104
0.9918584156444396 2.725108600279134 0.6000000000004104
0.7505752307973101 2.801184896238298 0.6000000000004104
0.5035797152340982 2.855942483735403 0.6000000000004104
0.2527516539682093 2.888964624466062 0.6000000000004104
2.888964624466063 0.2527516539682087 0.7999999999997891
2.855942483735403 0.5035797152340981 0.7999999999997891
2.801184896238298 0.7505752307973103 0.7999999999997891
2.725108600279135 0.9918584156444394 0.7999999999997891
2.628292582406285 1.225592959048029 0.7999999999997891
2.511473670974873 1.45 0.7999999999997891
2.375540928438077 1.663371665418034 0.7999999999997891
2.221528885045037 1.864084068090964 0.7999999999997891
2.050609665440988 2.050609665440988 0.7999999999997891
1.864084068090964 2.221528885045037 0.7999999999997891
1.663371665418034 2.375540928438077 0.7999999999997891
1.45 2.511473670974872 0.7999999999997891
1.225592959048029 2.628292582406285 0.7999999999997891
0.9918584156444397 2.725108600279134 0.7999999999997891
0.7505752307973103 2.801184896238298 0.7999999999997891
0.5035797152340983 2.855942483735403 0.7999999999997891
0.2527516539682093 2.888964624466063 0.7999999999997891
3.088203564084411 0.2701828025177403 0.2000000000000671
3.052904034337845 0.5383093507674841 0.2000000000000671
2.994370061496112 0.8023390398178143 0.2000000000000671
2.913047124436316 1.060262444309573 0.2000000000000671
2.809554139813615 1.310116611396168 0.2000000000000671
2.68467875173176 1.55 0.2000000000000671
2.539371337295875 1.778086952688243 0.2000000000000671
2.374737773668832 1.992641590028272 0.2000000000000671
2.192031021678297 2.192031021678297 0.2000000000000671
1.992641590028272 2.374737773668832 0.2000000000000671
1.778086952688243 2.539371337295875 0.2000000000000671
1.55 2.68467875173176 0.2000000000000671
1.310116611396168 2.809554139813615 0.2000000000000671
1.060262444309573 2.913047124436316 0.2000000000000671
0.8023390398178143 2.994370061496112 0.2000000000000671
0.5383093507674843 3.052904034337845 0.2000000000000671
0.2701828025177409 3.088203564084411 0.2000000000000671
3.088203564084411 0.2701828025177403 0.4000000000000498
3.052904034337844 0.538309350767484 0.4000000000000498
2.994370061496111 0.8023390398178142 0.4000000000000498
2.913047124436316 1.060262444309573 0.4000000000000498
2.809554139813614 1.310116611396168 0.4000000000000498
2.68467875173176 1.55 0.4000000000000498
2.539371337295874 1.778086952688243 0.4000000000000498
2.374737773668832 1.992641590028271 0.4000000000000498
2.192031021678297 2.192031021678297 0.4000000000000498
1.992641590028272 2.374737773668832 0.4000000000000498
1.778086952688243 2.539371337295874 0.4000000000000498
1.55 2.684678751731759 0.4000000000000498
1.310116611396168 2.809554139813614 0.4000000000000498
1.060262444309573 2.913047124436316 0.4000000000000498
0.8023390398178142 2.994370061496111 0.4000000000000498
0.5383093507674842 3.052904034337844 0.4000000000000498
0.2701828025177409 3.088203564084411 0.4000000000000498
3.088203564084412 0.2701828025177404 0.5999999999999219
3.052904034337846 0.5383093507674842 0.5999999999999219
2.994370061496113 0.8023390398178145 0.5999999999999219
2.913047124436317 1.060262444309573 0.5999999999999219
2.809554139813616 1.310116611396169 0.5999999999999219
2.684678751731761 1.55 0.5999999999999219
2.539371337295875 1.778086952688243 0.5999999999999219
2.374737773668833 1.992641590028272 0.5999999999999219
2.192031021678298 2.192031021678298 0.5999999999999219
1.992641590028273 2.374737773668833 0.5999999999999219
1.778086952688244 2.539371337295875 0.5999999999999219
1.550000000000001 2.68467875173176 0.5999999999999219
1.310116611396169 2.809554139813616 0.5999999999999219
1.060262444309574 2.913047124436317 0.5999999999999219
0.8023390398178145 2.994370061496113 0.5999999999999219
0.5383093507674844 3.052904034337846 0.5999999999999219
0.270182802517741 3.088203564084412 0.5999999999999219
3.088203564084412 0.2701828025177404 0.7999999999996834
3.052904034337846 0.5383093507674842 0.7999999999996834
2.994370061496113 0.8023390398178145 0.7999999999996834
2.913047124436317 1.060262444309573 0.7999999999996834
2.809554139813616 1.310116611396169 0.7999999999996834
2.684678751731761 1.55 0.7999999999996834
2.539371337295875 1.778086952688243 0.7999999999996834
2.374737773668833 1.992641590028272 0.7999999999996834
2.192031021678298 2.192031021678298 0.7999999999996834
1.992641590028273 2.374737773668833 0.7999999999996834
1.778086952688244 2.539371337295875 0.7999999999996834
1.550000000000001 2.68467875173176 0.7999999999996834
1.310116611396169 2.809554139813616 0.7999999999996834
1.060262444309574 2.913047124436317 0.7999999999996834
0.8023390398178145 2.994370061496113 0.7999999999996834
0.5383093507674844 3.052904034337846 0.7999999999996834
0.270182802517741 3.088203564084412 0.7999999999996834
3.28744250370276 0.2876139510672719 0.199999999999812
3.249865584940286 0.57303898630087 0.199999999999812
3.187555226753925 0.8541028488383184 0.199999999999812
3.100985648593498 1.128666472974707 0.199999999999812
2.990815697220945 1.394640263744308 0.199999999999812
2.857883832488648 1.65 0.199999999999812
2.703201746153673 1.892802239958452 0.199999999999812
2.527946662292627 2.121199111965579 0.199999999999812
2.333452377915607 2.333452377915607 0.199999999999812
2.12119911196558 2.527946662292627 0.199999999999812
1.892802239958452 2.703201746153673 0.199999999999812
1.65 2.857883832488647 0.199999999999812
1.394640263744308 2.990815697220945 0.199999999999812
1.128666472974707 3.100985648593497 0.199999999999812
0.8541028488383184 3.187555226753925 0.199999999999812
0.5730389863008704 3.249865584940286 0.199999999999812
0.2876139510672726 3.28744250370276 0.199999999999812
3.287442503702759 0.2876139510672719 0.3999999999995115
3.249865584940286 0.57303898630087 0.3999999999995115
3.187555226753925 0.8541028488383183 0.3999999999995115
3.100985648593497 1.128666472974706 0.3999999999995115
2.990815697220944 1.394640263744308 0.3999999999995115
2.857883832488647 1.649999999999999 0.3999999999995115
2.703201746153673 1.892802239958452 0.3999999999995115
2.527946662292627 2.121199111965579 0.3999999999995115
2.333452377915607 2.333452377915606 0.3999999999995115
2.121199111965579 2.527946662292627 0.3999999999995115
1.892802239958452 2.703201746153673 0.3999999999995115
1.65 2.857883832488647 0.3999999999995115
1.394640263744308 2.990815697220944 0.3999999999995115
1.128666472974707 3.100985648593497 0.3999999999995115
0.8541028488383183 3.187555226753925 0.3999999999995115
0.5730389863008702 3.249865584940286 0.3999999999995115
0.2876139510672726 3.287442503702759 0.3999999999995115
3.28744250370276 0.2876139510672719 0.5999999999994334
3.249865584940286 0.57303898630087 0.5999999999994334
3.187555226753925 0.8541028488383184 0.5999999999994334
3.100985648593498 1.128666472974707 0.5999999999994334
2.990815697220945 1.394640263744308 0.5999999999994334
2.857883832488648 1.65 0.5999999999994334
2.703201746153673 1.892802239958452 0.5999999999994334
2.527946662292627 2.121199111965579 0.5999999999994334
2.333452377915607 2.333452377915607 0.5999999999994334
2.12119911196558 2.527946662292627 0.5999999999994334
1.892802239958452 2.703201746153673 0.5999999999994334
1.65 2.857883832488647 0.5999999999994334
1.394640263744308 2.990815697220945 0.5999999999994334
1.128666472974707 3.100985648593497 0.5999999999994334
0.8541028488383184 3.187555226753925 0.5999999999994334
0.5730389863008704 3.249865584940286 0.5999999999994334
0.2876139510672726 3.28744250370276 0.5999999999994334
3.28744250370276 0.2876139510672719 0.7999999999995779
3.249865584940287 0.5730389863008701 0.7999999999995779
3.187555226753926 0.8541028488383186 0.7999999999995779
3.100985648593498 1.128666472974707 0.7999999999995779
2.990815697220945 1.394640263744308 0.7999999999995779
2.857883832488648 1.65 0.7999999999995779
2.703201746153673 1.892802239958452 0.7999999999995779
2.527946662292627 2.12119911196558 0.7999999999995779
2.333452377915607 2.333452377915607 0.7999999999995779
2.12119911196558 2.527946662292627 0.7999999999995779
1.892802239958453 2.703201746153673 0.7999999999995779
1.650000000000001 2.857883832488648 0.7999999999995779
1.394640263744308 2.990815697220945 0.7999999999995779
1.128666472974707 3.100985648593498 0.7999999999995779
0.8541028488383186 3.187555226753926 0.7999999999995779
0.5730389863008705 3.249865584940287 0.7999999999995779
0.2876139510672726 3.28744250370276 0.7999999999995779
3 3 0 80
1037
1038
1039
1040
1041
1042
1043
1044
1045
1046
1047
1048
1049
1050
1051
1052
1053
1054
1055
1056
1057
1058
1059
1060
1061
1062
1063
1064
1065
1066
1067
1068
1069
1070
1071
1072
1073
1074
1075
1076
1077
1078
1079
1080
1081
1082
1083
1084
1085
1086
1087
1088
1089
1090
1091
1092
1093
1094
1095
1096
1097
1098
1099
1100
1101
1102
1103
1104
1105
1106
1107
1108
1109
1110
1111
1112
1113
1114
1115
1116
-0.3333333333333331 2.7 0.2000000000005774
-0.6666666666666665 2.7 0.2000000000005774
-0.9999999999999999 2.7 0.2000000000005774
-1.333333333333333 2.7 0.2000000000005774
-1.666666666666667 2.7 0.2000000000005774
-0.3333333333333331 2.7 0.4000000000011266
-0.6666666666666665 2.7 0.4000000000011266
-0.9999999999999999 2.7 0.4000000000011266
-1.333333333333333 2.7 0.4000000000011266
-1.666666666666667 2.7 0.4000000000011266
-0.3333333333333331 2.7 0.6000000000008989
-0.6666666666666665 2.7 0.6000000000008989
-0.9999999999999999 2.7 0.6000000000008989
-1.333333333333333 2.7 0.6000000000008989
-1.666666666666667 2.7 0.6000000000008989
-0.3333333333333331 2.7 0.7999999999998946
-0.6666666666666665 2.7 0.7999999999998946
-0.9999999999999999 2.7 0.7999999999998946
-1.333333333333333 2.7 0.7999999999998946
-1.666666666666667 2.7 0.7999999999998946
-0.3333333333333331 2.900000000000001 0.2000000000003223
-0.6666666666666664 2.900000000000001 0.2000000000003223
-0.9999999999999998 2.900000000000001 0.2000000000003223
-1.333333333333333 2.900000000000001 0.2000000000003223
-1.666666666666667 2.900000000000001 0.2000000000003223
-0.3333333333333331 2.900000000000001 0.4000000000005883
-0.6666666666666664 2.900000000000001 0.4000000000005883
-0.9999999999999998 2.900000000000001 0.4000000000005883
-1.333333333333333 2.900000000000001 0.4000000000005883
-1.666666666666667 2.900000000000001 0.4000000000005883
-0.3333333333333331 2.9 0.6000000000004104
-0.6666666666666664 2.9 0.6000000000004104
-0.9999999999999998 2.9 0.6000000000004104
-1.333333333333333 2.9 0.6000000000004104
-1.666666666666667 2.9 0.6000000000004104
-0.3333333333333331 2.9 0.7999999999997891
-0.6666666666666664 2.9 0.7999999999997891
-0.9999999999999998 2.9 0.7999999999997891
-1.333333333333333 2.9 0.7999999999997891
-1.666666666666667 2.9 0.7999999999997891
-0.3333333333333331 3.1 0.2000000000000671
-0.6666666666666664 3.1 0.2000000000000671
-0.9999999999999998 3.1 0.2000000000000671
-1.333333333333333 3.1 0.2000000000000671
-1.666666666666667 3.1 0.2000000000000671
-0.3333333333333331 3.1 0.4000000000000498
-0.6666666666666664 3.1 0.4000000000000498
-0.9999999999999998 3.1 0.4000000000000498
-1.333333333333333 3.1 0.4000000000000498
-1.666666666666667 3.1 0.4000000000000498
-0.3333333333333331 3.100000000000001 0.5999999999999219
-0.6666666666666664 3.100000000000001 0.5999999999999219
-0.9999999999999998 3.100000000000001 0.5999999999999219
-1.333333333333333 3.100000000000001 0.5999999999999219
-1.666666666666667 3.100000000000001 0.5999999999999219
-0.3333333333333331 3.100000000000001 0.7999999999996834
-0.6666666666666664 3.100000000000001 0.7999999999996834
-0.9999999999999998 3.100000000000001 0.7999999999996834
-1.333333333333333 3.100000000000001 0.7999999999996834
-1.666666666666667 3.100000000000001 0.7999999999996834
-0.3333333333333331 3.3 0.199999999999812
-0.6666666666666664 3.3 0.199999999999812
-0.9999999999999998 3.3 0.199999999999812
-1.333333333333333 3.3 0.199999999999812
-1.666666666666667 3.3 0.199999999999812
-0.3333333333333331 3.299999999999999 0.3999999999995115
-0.6666666666666664 3.299999999999999 0.3999999999995115
-0.9999999999999998 3.299999999999999 0.3999999999995115
-1.333333333333333 3.299999999999999 0.3999999999995115
-1.666666666666667 3.299999999999999 0.3999999999995115
-0.3333333333333331 3.3 0.5999999999994334
-0.6666666666666664 3.3 0.5999999999994334
-0.9999999999999998 3.3 0.5999999999994334
-1.333333333333333 3.3 0.5999999999994334
-1.666666666666667 3.3 0.5999999999994334
-0.3333333333333331 3.3 0.7999999999995779
-0.6666666666666664 3.3 0.7999999999995779
-0.9999999999999998 3.3 0.7999999999995779
-1.333333333333333 3.3 0.7999999999995779
-1.666666666666667 3.3 0.7999999999995779
$EndNodes
$Elements
17 1400 1 1400
2 1 3 25
1 1 17 189 32 
2 32 189 190 31 
3 31 190 191 30 
4 30 191 192 29 
5 29 192 28 4 
6 17 18 193 189 
7 189 193 194 190 
8 190 194 195 191 
9 191 195 196 192 
10 192 196 27 28 
11 18 19 197 193 
12 193 197 198 194 
13 194 198 199 195 
14 195 199 200 196 
15 196 200 26 27 
16 19 20 201 197 
17 197 201 202 198 
18 198 202 203 199 
19 199 203 204 200 
20 200 204 25 26 
21 20 2 21 201 
22 201 21 22 202 
23 202 22 23 203 
24 203 23 24 204 
25 204 24 3 25 
2 13 3 30
26 1 17 205 49 
27 49 205 206 50 
28 50 206 207 51 
29 51 207 208 52 
30 52 208 209 53 
31 53 209 33 5 
32 17 18 210 205 
33 205 210 211 206 
34 206 211 212 207 
35 207 212 213 208 
36 208 213 214 209 
37 209 214 34 33 
38 18 19 215 210 
39 210 215 216 211 
40 211 216 217 212 
41 212 217 218 213 
42 213 218 219 214 
43 214 219 35 34 
44 19 20 220 215 
45 215 220 221 216 
46 216 221 222 217 
47 217 222 223 218 
48 218 223 224 219 
49 219 224 36 35 
50 20 2 54 220 
51 220 54 55 221 
52 221 55 56 222 
53 222 56 57 223 
54 223 57 58 224 
55 224 58 6 36 
2 17 3 30
56 2 21 225 54 
57 54 225 226 55 
58 55 226 227 56 
59 56 227 228 57 
60 57 228 229 58 
61 58 229 37 6 
62 21 22 230 225 
63 225 230 231 226 
64 226 231 232 227 
65 227 232 233 228 
66 228 233 234 229 
67 229 234 38 37 
68 22 23 235 230 
69 230 235 236 231 
70 231 236 237 232 
71 232 237 238 233 
72 233 238 239 234 
73 234 239 39 38 
74 23 24 240 235 
75 235 240 241 236 
76 236 241 242 237 
77 237 242 243 238 
78 238 243 244 239 
79 239 244 40 39 
80 24 3 59 240 
81 240 59 60 241 
82 241 60 61 242 
83 242 61 62 243 
84 243 62 63 244 
85 244 63 7 40 
2 21 3 30
86 3 25 245 59 
87 59 245 246 60 
88 60 246 247 61 
89 61 247 248 62 
90 62 248 249 63 
91 63 249 41 7 
92 25 26 250 245 
93 245 250 251 246 
94 246 251 252 247 
95 247 252 253 248 
96 248 253 254 249 
97 249 254 42 41 
98 26 27 255 250 
99 250 255 256 251 
100 251 256 257 252 
101 252 257 258 253 
102 253 258 259 254 
103 254 259 43 42 
104 27 28 260 255 
105 255 260 261 256 
106 256 261 262 257 
107 257 262 263 258 
108 258 263 264 259 
109 259 264 44 43 
110 28 4 64 260 
111 260 64 65 261 
112 261 65 66 262 
113 262 66 67 263 
114 263 67 68 264 
115 264 68 8 44 
2 25 3 30
116 4 29 265 64 
117 64 265 266 65 
118 65 266 267 66 
119 66 267 268 67 
120 67 268 269 68 
121 68 269 45 8 
122 29 30 270 265 
123 265 270 271 266 
124 266 271 272 267 
125 267 272 273 268 
126 268 273 274 269 
127 269 274 46 45 
128 30 31 275 270 
129 270 275 276 271 
130 271 276 277 272 
131 272 277 278 273 
132 273 278 279 274 
133 274 279 47 46 
134 31 32 280 275 
135 275 280 281 276 
136 276 281 282 277 
137 277 282 283 278 
138 278 283 284 279 
139 279 284 48 47 
140 32 1 49 280 
141 280 49 50 281 
142 281 50 51 282 
143 282 51 52 283 
144 283 52 53 284 
145 284 53 5 48 
2 35 3 90
146 5 33 301 85 
147 85 301 302 86 
148 86 302 303 87 
149 87 303 304 88 
150 88 304 305 89 
151 89 305 306 90 
152 90 306 307 91 
153 91 307 308 92 
154 92 308 309 93 
155 93 309 310 94 
156 94 310 311 95 
157 95 311 312 96 
158 96 312 313 97 
159 97 313 314 98 
160 98 314 315 99 
161 99 315 316 100 
162 100 316 317 101 
163 101 317 69 9 
164 33 34 318 301 
165 301 318 319 302 
166 302 319 320 303 
167 303 320 321 304 
168 304 321 322 305 
169 305 322 323 306 
170 306 323 324 307 
171 307 324 325 308 
172 308 325 326 309 
173 309 326 327 310 
174 310 327 328 311 
175 311 328 329 312 
176 312 329 330 313 
177 313 330 331 314 
178 314 331 332 315 
179 315 332 333 316 
180 316 333 334 317 
181 317 334 70 69 
182 34 35 335 318 
183 318 335 336 319 
184 319 336 337 320 
185 320 337 338 321 
186 321 338 339 322 
187 322 339 340 323 
188 323 340 341 324 
189 324 341 342 325 
190 325 342 343 326 
191 326 343 344 327 
192 327 344 345 328 
193 328 345 346 329 
194 329 346 347 330 
195 330 347 348 331 
196 331 348 349 332 
197 332 349 350 333 
198 333 350 351 334 
199 334 351 71 70 
200 35 36 352 335 
201 335 352 353 336 
202 336 353 354 337 
203 337 354 355 338 
204 338 355 356 339 
205 339 356 357 340 
206 340 357 358 341 
207 341 358 359 342 
208 342 359 360 343 
209 343 360 361 344 
210 344 361 362 345 
211 345 362 363 346 
212 346 363 364 347 
213 347 364 365 348 
214 348 365 366 349 
215 349 366 367 350 
216 350 367 368 351 
217 351 368 72 71 
218 36 6 102 352 
219 352 102 103 353 
220 353 103 104 354 
221 354 104 105 355 
222 355 105 106 356 
223 356 106 107 357 
224 357 107 108 358 
225 358 108 109 359 
226 359 109 110 360 
227 360 110 111 361 
228 361 111 112 362 
229 362 112 113 363 
230 363 113 114 364 
231 364 114 115 365 
232 365 115 116 366 
233 366 116 117 367 
234 367 117 118 368 
235 368 118 10 72 
2 39 3 90
236 6 37 369 102 
237 102 369 370 103 
238 103 370 371 104 
239 104 371 372 105 
240 105 372 373 106 
241 106 373 374 107 
242 107 374 375 108 
243 108 375 376 109 
244 109 376 377 110 
245 110 377 378 111 
246 111 378 379 112 
247 112 379 380 113 
248 113 380 381 114 
249 114 381 382 115 
250 115 382 383 116 
251 116 383 384 117 
252 117 384 385 118 
253 118 385 73 10 
254 37 38 386 369 
255 369 386 387 370 
256 370 387 388 371 
257 371 388 389 372 
258 372 389 390 373 
259 373 390 391 374 
260 374 391 392 375 
261 375 392 393 376 
262 376 393 394 377 
263 377 394 395 378 
264 378 395 396 379 
265 379 396 397 380 
266 380 397 398 381 
267 381 398 399 382 
268 382 399 400 383 
269 383 400 401 384 
270 384 401 402 385 
271 385 402 74 73 
272 38 39 403 386 
273 386 403 404 387 
274 387 404 405 388 
275 388 405 406 389 
276 389 406 407 390 
277 390 407 408 391 
278 391 408 409 392 
279 392 409 410 393 
280 393 410 411 394 
281 394 411 412 395 
282 395 412 413 396 
283 396 413 414 397 
284 397 414 415 398 
285 398 415 416 399 
286 399 416 417 400 
287 400 417 418 401 
288 401 418 419 402 
289 402 419 75 74 
290 39 40 420 403 
291 403 420 421 404 
292 404 421 422 405 
293 405 422 423 406 
294 406 423 424 407 
295 407 424 425 408 
296 408 425 426 409 
297 409 426 427 410 
298 410 427 428 411 
299 411 428 429 412 
300 412 429 430 413 
301 413 430 431 414 
302 414 431 432 415 
303 415 432 433 416 
304 416 433 434 417 
305 417 434 435 418 
306 418 435 436 419 
307 419 436 76 75 
308 40 7 119 420 
309 420 119 120 421 
310 421 120 121 422 
311 422 121 122 423 
312 423 122 123 424 
313 424 123 124 425 
314 425 124 125 426 
315 426 125 126 427 
316 427 126 127 428 
317 428 127 128 429 
318 429 128 129 430 
319 430 129 130 431 
320 431 130 131 432 
321 432 131 132 433 
322 433 132 133 434 
323 434 133 134 435 
324 435 134 135 436 
325 436 135 11 76 
2 43 3 90
326 7 41 437 119 
327 119 437 438 120 
328 120 438 439 121 
329 121 439 440 122 
330 122 440 441 123 
331 123 441 442 124 
332 124 442 443 125 
333 125 443 444 126 
334 126 444 445 127 
335 127 445 446 128 
336 128 446 447 129 
337 129 447 448 130 
338 130 448 449 131 
339 131 449 450 132 
340 132 450 451 133 
341 133 451 452 134 
342 134 452 453 135 
343 135 453 77 11 
344 41 42 454 437 
345 437 454 455 438 
346 438 455 456 439 
347 439 456 457 440 
348 440 457 458 441 
349 441 458 459 442 
350 442 459 460 443 
351 443 460 461 444 
352 444 461 462 445 
353 445 462 463 446 
354 446 463 464 447 
355 447 464 465 448 
356 448 465 466 449 
357 449 466 467 450 
358 450 467 468 451 
359 451 468 469 452 
360 452 469 470 453 
361 453 470 78 77 
362 42 43 471 454 
363 454 471 472 455 
364 455 472 473 456 
365 456 473 474 457 
366 457 474 475 458 
367 458 475 476 459 
368 459 476 477 460 
369 460 477 478 461 
370 461 478 479 462 
371 462 479 480 463 
372 463 480 481 464 
373 464 481 482 465 
374 465 482 483 466 
375 466 483 484 467 
376 467 484 485 468 
377 468 485 486 469 
378 469 486 487 470 
379 470 487 79 78 
380 43 44 488 471 
381 471 488 489 472 
382 472 489 490 473 
383 473 490 491 474 
384 474 491 492 475 
385 475 492 493 476 
386 476 493 494 477 
387 477 494 495 478 
388 478 495 496 479 
389 479 496 497 480 
390 480 497 498 481 
391 481 498 499 482 
392 482 499 500 483 
393 483 500 501 484 
394 484 501 502 485 
395 485 502 503 486 
396 486 503 504 487 
397 487 504 80 79 
398 44 8 136 488 
399 488 136 137 489 
400 489 137 138 490 
401 490 138 139 491 
402 491 139 140 492 
403 492 140 141 493 
404 493 141 142 494 
405 494 142 143 495 
406 495 143 144 496 
407 496 144 145 497 
408 497 145 146 498 
409 498 146 147 499 
410 499 147 148 500 
411 500 148 149 501 
412 501 149 150 502 
413 502 150 151 503 
414 503 151 152 504 
415 504 152 12 80 
2 47 3 90
416 8 45 505 136 
417 136 505 506 137 
418 137 506 507 138 
419 138 507 508 139 
420 139 508 509 140 
421 140 509 510 141 
422 141 510 511 142 
423 142 511 512 143 
424 143 512 513 144 
425 144 513 514 145 
426 145 514 515 146 
427 146 515 516 147 
428 147 516 517 148 
429 148 517 518 149 
430 149 518 519 150 
431 150 519 520 151 
432 151 520 521 152 
433 152 521 81 12 
434 45 46 522 505 
435 505 522 523 506 
436 506 523 524 507 
437 507 524 525 508 
438 508 525 526 509 
439 509 526 527 510 
440 510 527 528 511 
441 511 528 529 512 
442 512 529 530 513 
443 513 530 531 514 
444 514 531 532 515 
445 515 532 533 516 
446 516 533 534 517 
447 517 534 535 518 
448 518 535 536 519 
449 519 536 537 520 
450 520 537 538 521 
451 521 538 82 81 
452 46 47 539 522 
453 522 539 540 523 
454 523 540 541 524 
455 524 541 542 525 
456 525 542 543 526 
457 526 543 544 527 
458 527 544 545 528 
459 528 545 546 529 
460 529 546 547 530 
461 530 547 548 531 
462 531 548 549 532 
463 532 549 550 533 
464 533 550 551 534 
465 534 551 552 535 
466 535 552 553 536 
467 536 553 554 537 
468 537 554 555 538 
469 538 555 83 82 
470 47 48 556 539 
471 539 556 557 540 
472 540 557 558 541 
473 541 558 559 542 
474 542 559 560 543 
475 543 560 561 544 
476 544 561 562 545 
477 545 562 563 546 
478 546 563 564 547 
479 547 564 565 548 
480 548 565 566 549 
481 549 566 567 550 
482 550 567 568 551 
483 551 568 569 552 
484 552 569 570 553 
485 553 570 571 554 
486 554 571 572 555 
487 555 572 84 83 
488 48 5 85 556 
489 556 85 86 557 
490 557 86 87 558 
491 558 87 88 559 
492 559 88 89 560 
493 560 89 90 561 
494 561 90 91 562 
495 562 91 92 563 
496 563 92 93 564 
497 564 93 94 565 
498 565 94 95 566 
499 566 95 96 567 
500 567 96 97 568 
501 568 97 98 569 
502 569 98 99 570 
503 570 99 100 571 
504 571 100 101 572 
505 572 101 9 84 
2 57 3 30
506 9 69 589 169 
507 169 589 590 170 
508 170 590 591 171 
509 171 591 592 172 
510 172 592 593 173 
511 173 593 153 13 
512 69 70 594 589 
513 589 594 595 590 
514 590 595 596 591 
515 591 596 597 592 
516 592 597 598 593 
517 593 598 154 153 
518 70 71 599 594 
519 594 599 600 595 
520 595 600 601 596 
521 596 601 602 597 
522 597 602 603 598 
523 598 603 155 154 
524 71 72 604 599 
525 599 604 605 600 
526 600 605 606 601 
527 601 606 607 602 
528 602 607 608 603 
529 603 608 156 155 
530 72 10 174 604 
531 604 174 175 605 
532 605 175 176 606 
533 606 176 177 607 
534 607 177 178 608 
535 608 178 14 156 
2 61 3 30
536 10 73 609 174 
537 174 609 610 175 
538 175 610 611 176 
539 176 611 612 177 
540 177 612 613 178 
541 178 613 157 14 
542 73 74 614 609 
543 609 614 615 610 
544 610 615 616 611 
545 611 616 617 612 
546 612 617 618 613 
547 613 618 158 157 
548 74 75 619 614 
549 614 619 620 615 
550 615 620 621 616 
551 616 621 622 617 
552 617 622 623 618 
553 618 623 159 158 
554 75 76 624 619 
555 619 624 625 620 
556 620 625 626 621 
557 621 626 627 622 
558 622 627 628 623 
559 623 628 160 159 
560 76 11 179 624 
561 624 179 180 625 
562 625 180 181 626 
563 626 181 182 627 
564 627 182 183 628 
565 628 183 15 160 
2 65 3 30
566 11 77 629 179 
567 179 629 630 180 
568 180 630 631 181 
569 181 631 632 182 
570 182 632 633 183 
571 183 633 161 15 
572 77 78 634 629 
573 629 634 635 630 
574 630 635 636 631 
575 631 636 637 632 
576 632 637 638 633 
577 633 638 162 161 
578 78 79 639 634 
579 634 639 640 635 
580 635 640 641 636 
581 636 641 642 637 
582 637 642 643 638 
583 638 643 163 162 
584 79 80 644 639 
585 639 644 645 640 
586 640 645 646 641 
587 641 646 647 642 
588 642 647 648 643 
589 643 648 164 163 
590 80 12 184 644 
591 644 184 185 645 
592 645 185 186 646 
593 646 186 187 647 
594 647 187 188 648 
595 648 188 16 164 
2 69 3 30
596 12 81 649 184 
597 184 649 650 185 
598 185 650 651 186 
599 186 651 652 187 
600 187 652 653 188 
601 188 653 165 16 
602 81 82 654 649 
603 649 654 655 650 
604 650 655 656 651 
605 651 656 657 652 
606 652 657 658 653 
607 653 658 166 165 
608 82 83 659 654 
609 654 659 660 655 
610 655 660 661 656 
611 656 661 662 657 
612 657 662 663 658 
613 658 663 167 166 
614 83 84 664 659 
615 659 664 665 660 
616 660 665 666 661 
617 661 666 667 662 
618 662 667 668 663 
619 663 668 168 167 
620 84 9 169 664 
621 664 169 170 665 
622 665 170 171 666 
623 666 171 172 667 
624 667 172 173 668 
625 668 173 13 168 
2 70 3 25
626 13 153 669 168 
627 168 669 670 167 
628 167 670 671 166 
629 166 671 672 165 
630 165 672 164 16 
631 153 154 673 669 
632 669 673 674 670 
633 670 674 675 671 
634 671 675 676 672 
635 672 676 163 164 
636 154 155 677 673 
637 673 677 678 674 
638 674 678 679 675 
639 675 679 680 676 
640 676 680 162 163 
641 155 156 681 677 
642 677 681 682 678 
643 678 682 683 679 
644 679 683 684 680 
645 680 684 161 162 
646 156 14 157 681 
647 681 157 158 682 
648 682 158 159 683 
649 683 159 160 684 
650 684 160 15 161 
3 1 5 150
651 189 17 1 32 685 205 49 280 
652 685 205 49 280 686 206 50 281 
653 686 206 50 281 687 207 51 282 
654 687 207 51 282 688 208 52 283 
655 688 208 52 283 689 209 53 284 
656 689 209 53 284 285 33 5 48 
657 190 189 32 31 690 685 280 275 
658 690 685 280 275 691 686 281 276 
659 691 686 281 276 692 687 282 277 
660 692 687 282 277 693 688 283 278 
661 693 688 283 278 694 689 284 279 
662 694 689 284 279 286 285 48 47 
663 191 190 31 30 695 690 275 270 
664 695 690 275 270 696 691 276 271 
665 696 691 276 271 697 692 277 272 
666 697 692 277 272 698 693 278 273 
667 698 693 278 273 699 694 279 274 
668 699 694 279 274 287 286 47 46 
669 192 191 30 29 700 695 270 265 
670 700 695 270 265 701 696 271 266 
671 701 696 271 266 702 697 272 267 
672 702 697 272 267 703 698 273 268 
673 703 698 273 268 704 699 274 269 
674 704 699 274 269 288 287 46 45 
675 28 192 29 4 260 700 265 64 
676 260 700 265 64 261 701 266 65 
677 261 701 266 65 262 702 267 66 
678 262 702 267 66 263 703 268 67 
679 263 703 268 67 264 704 269 68 
680 264 704 269 68 44 288 45 8 
681 193 18 17 189 705 210 205 685 
682 705 210 205 685 706 211 206 686 
683 706 211 206 686 707 212 207 687 
684 707 212 207 687 708 213 208 688 
685 708 213 208 688 709 214 209 689 
686 709 214 209 689 289 34 33 285 
687 194 193 189 190 710 705 685 690 
688 710 705 685 690 711 706 686 691 
689 711 706 686 691 712 707 687 692 
690 712 707 687 692 713 708 688 693 
691 713 708 688 693 714 709 689 694 
692 714 709 689 694 290 289 285 286 
693 195 194 190 191 715 710 690 695 
694 715 710 690 695 716 711 691 696 
695 716 711 691 696 717 712 692 697 
696 717 712 692 697 718 713 693 698 
697 718 713 693 698 719 714 694 699 
698 719 714 694 699 291 290 286 287 
699 196 195 191 192 720 715 695 700 
700 720 715 695 700 721 716 696 701 
701 721 716 696 701 722 717 697 702 
702 722 717 697 702 723 718 698 703 
703 723 718 698 703 724 719 699 704 
704 724 719 699 704 292 291 287 288 
705 27 196 192 28 255 720 700 260 
706 255 720 700 260 256 721 701 261 
707 256 721 701 261 257 722 702 262 
708 257 722 702 262 258 723 703 263 
709 258 723 703 263 259 724 704 264 
710 259 724 704 264 43 292 288 44 
711 197 19 18 193 725 215 210 705 
712 725 215 210 705 726 216 211 706 
713 726 216 211 706 727 217 212 707 
714 727 217 212 707 728 218 213 708 
715 728 218 213 708 729 219 214 709 
716 729 219 214 709 293 35 34 289 
717 198 197 193 194 730 725 705 710 
718 730 725 705 710 731 726 706 711 
719 731 726 706 711 732 727 707 712 
720 732 727 707 712 733 728 708 713 
721 733 728 708 713 734 729 709 714 
722 734 729 709 714 294 293 289 290 
723 199 198 194 195 735 730 710 715 
724 735 730 710 715 736 731 711 716 
725 736 731 711 716 737 732 712 717 
726 737 732 712 717 738 733 713 718 
727 738 733 713 718 739 734 714 719 
728 739 734 714 719 295 294 290 291 
729 200 199 195 196 740 735 715 720 
730 740 735 715 720 741 736 716 721 
731 741 736 716 721 742 737 717 722 
732 742 737 717 722 743 738 718 723 
733 743 738 718 723 744 739 719 724 
734 744 739 719 724 296 295 291 292 
735 26 200 196 27 250 740 720 255 
736 250 740 720 255 251 741 721 256 
737 251 741 721 256 252 742 722 257 
738 252 742 722 257 253 743 723 258 
739 253 743 723 258 254 744 724 259 
740 254 744 724 259 42 296 292 43 
741 201 20 19 197 745 220 215 725 
742 745 220 215 725 746 221 216 726 
743 746 221 216 726 747 222 217 727 
744 747 222 217 727 748 223 218 728 
745 748 223 218 728 749 224 219 729 
746 749 224 219 729 297 36 35 293 
747 202 201 197 198 750 745 725 730 
748 750 745 725 730 751 746 726 731 
749 751 746 726 731 752 747 727 732 
750 752 747 727 732 753 748 728 733 
751 753 748 728 733 754 749 729 734 
752 754 749 729 734 298 297 293 294 
753 203 202 198 199 755 750 730 735 
754 755 750 730 735 756 751 731 736 
755 756 751 731 736 757 752 732 737 
756 757 752 732 737 758 753 733 738 
757 758 753 733 738 759 754 734 739 
758 759 754 734 739 299 298 294 295 
759 204 203 199 200 760 755 735 740 
760 760 755 735 740 761 756 736 741 
761 761 756 736 741 762 757 737 742 
762 762 757 737 742 763 758 738 743 
763 763 758 738 743 764 759 739 744 
764 764 759 739 744 300 299 295 296 
765 25 204 200 26 245 760 740 250 
766 245 760 740 250 246 761 741 251 
767 246 761 741 251 247 762 742 252 
768 247 762 742 252 248 763 743 253 
769 248 763 743 253 249 764 744 254 
770 249 764 744 254 41 300 296 42 
771 21 2 20 201 225 54 220 745 
772 225 54 220 745 226 55 221 746 
773 226 55 221 746 227 56 222 747 
774 227 56 222 747 228 57 223 748 
775 228 57 223 748 229 58 224 749 
776 229 58 224 749 37 6 36 297 
777 22 21 201 202 230 225 745 750 
778 230 225 745 750 231 226 746 751 
779 231 226 746 751 232 227 747 752 
780 232 227 747 752 233 228 748 753 
781 233 228 748 753 234 229 749 754 
782 234 229 749 754 38 37 297 298 
783 23 22 202 203 235 230 750 755 
784 235 230 750 755 236 231 751 756 
785 236 231 751 756 237 232 752 757 
786 237 232 752 757 238 233 753 758 
787 238 233 753 758 239 234 754 759 
788 239 234 754 759 39 38 298 299 
789 24 23 203 204 240 235 755 760 
790 240 235 755 760 241 236 756 761 
791 241 236 756 761 242 237 757 762 
792 242 237 757 762 243 238 758 763 
793 243 238 758 763 244 239 759 764 
794 244 239 759 764 40 39 299 300 
795 3 24 204 25 59 240 760 245 
796 59 240 760 245 60 241 761 246 
797 60 241 761 246 61 242 762 247 
798 61 242 762 247 62 243 763 248 
799 62 243 763 248 63 244 764 249 
800 63 244 764 249 7 40 300 41 
3 2 5 450
801 285 33 5 48 765 301 85 556 
802 765 301 85 556 766 302 86 557 
803 766 302 86 557 767 303 87 558 
804 767 303 87 558 768 304 88 559 
805 768 304 88 559 769 305 89 560 
806 769 305 89 560 770 306 90 561 
807 770 306 90 561 771 307 91 562 
808 771 307 91 562 772 308 92 563 
809 772 308 92 563 773 309 93 564 
810 773 309 93 564 774 310 94 565 
811 774 310 94 565 775 311 95 566 
812 775 311 95 566 776 312 96 567 
813 776 312 96 567 777 313 97 568 
814 777 313 97 568 778 314 98 569 
815 778 314 98 569 779 315 99 570 
816 779 315 99 570 780 316 100 571 
817 780 316 100 571 781 317 101 572 
818 781 317 101 572 573 69 9 84 
819 286 285 48 47 782 765 556 539 
820 782 765 556 539 783 766 557 540 
821 783 766 557 540 784 767 558 541 
822 784 767 558 541 785 768 559 542 
823 785 768 559 542 786 769 560 543 
824 786 769 560 543 787 770 561 544 
825 787 770 561 544 788 771 562 545 
826 788 771 562 545 789 772 563 546 
827 789 772 563 546 790 773 564 547 
828 790 773 564 547 791 774 565 548 
829 791 774 565 548 792 775 566 549 
830 792 775 566 549 793 776 567 550 
831 793 776 567 550 794 777 568 551 
832 794 777 568 551 795 778 569 552 
833 795 778 569 552 796 779 570 553 
834 796 779 570 553 797 780 571 554 
835 797 780 571 554 798 781 572 555 
836 798 781 572 555 574 573 84 83 
837 287 286 47 46 799 782 539 522 
838 799 782 539 522 800 783 540 523 
839 800 783 540 523 801 784 541 524 
840 801 784 541 524 802 785 542 525 
841 802 785 542 525 803 786 543 526 
842 803 786 543 526 804 787 544 527 
843 804 787 544 527 805 788 545 528 
844 805 788 545 528 806 789 546 529 
845 806 789 546 529 807 790 547 530 
846 807 790 547 530 808 791 548 531 
847 808 791 548 531 809 792 549 532 
848 809 792 549 532 810 793 550 533 
849 810 793 550 533 811 794 551 534 
850 811 794 551 534 812 795 552 535 
851 812 795 552 535 813 796 553 536 
852 813 796 553 536 814 797 554 537 
853 814 797 554 537 815 798 555 538 
854 815 798 555 538 575 574 83 82 
855 288 287 46 45 816 799 522 505 
856 816 799 522 505 817 800 523 506 
857 817 800 523 506 818 801 524 507 
858 818 801 524 507 819 802 525 508 
859 819 802 525 508 820 803 526 509 
860 820 803 526 509 821 804 527 510 
861 821 804 527 510 822 805 528 511 
862 822 805 528 511 823 806 529 512 
863 823 806 529 512 824 807 530 513 
864 824 807 530 513 825 808 531 514 
865 825 808 531 514 826 809 532 515 
866 826 809 532 515 827 810 533 516 
867 827 810 533 516 828 811 534 517 
868 828 811 534 517 829 812 535 518 
869 829 812 535 518 830 813 536 519 
870 830 813 536 519 831 814 537 520 
871 831 814 537 520 832 815 538 521 
872 832 815 538 521 576 575 82 81 
873 44 288 45 8 488 816 505 136 
874 488 816 505 136 489 817 506 137 
875 489 817 506 137 490 818 507 138 
876 490 818 507 138 491 819 508 139 
877 491 819 508 139 492 820 509 140 
878 492 820 509 140 493 821 510 141 
879 493 821 510 141 494 822 511 142 
880 494 822 511 142 495 823 512 143 
881 495 823 512 143 496 824 513 144 
882 496 824 513 144 497 825 514 145 
883 497 825 514 145 498 826 515 146 
884 498 826 515 146 499 827 516 147 
885 499 827 516 147 500 828 517 148 
886 500 828 517 148 501 829 518 149 
887 501 829 518 149 502 830 519 150 
888 502 830 519 150 503 831 520 151 
889 503 831 520 151 504 832 521 152 
890 504 832 521 152 80 576 81 12 
891 289 34 33 285 833 318 301 765 
892 833 318 301 765 834 319 302 766 
893 834 319 302 766 835 320 303 767 
894 835 320 303 767 836 321 304 768 
895 836 321 304 768 837 322 305 769 
896 837 322 305 769 838 323 306 770 
897 838 323 306 770 839 324 307 771 
898 839 324 307 771 840 325 308 772 
899 840 325 308 772 841 326 309 773 
900 841 326 309 773 842 327 310 774 
901 842 327 310 774 843 328 311 775 
902 843 328 311 775 844 329 312 776 
903 844 329 312 776 845 330 313 777 
904 845 330 313 777 846 331 314 778 
905 846 331 314 778 847 332 315 779 
906 847 332 315 779 848 333 316 780 
907 848 333 316 780 849 334 317 781 
908 849 334 317 781 577 70 69 573 
909 290 289 285 286 850 833 765 782 
910 850 833 765 782 851 834 766 783 
911 851 834 766 783 852 835 767 784 
912 852 835 767 784 853 836 768 785 
913 853 836 768 785 854 837 769 786 
914 854 837 769 786 855 838 770 787 
915 855 838 770 787 856 839 771 788 
916 856 839 771 788 857 840 772 789 
917 857 840 772 789 858 841 773 790 
918 858 841 773 790 859 842 774 791 
919 859 842 774 791 860 843 775 792 
920 860 843 775 792 861 844 776 793 
921 861 844 776 793 862 845 777 794 
922 862 845 777 794 863 846 778 795 
923 863 846 778 795 864 847 779 796 
924 864 847 779 796 865 848 780 797 
925 865 848 780 797 866 849 781 798 
926 866 849 781 798 578 577 573 574 
927 291 290 286 287 867 850 782 799 
928 867 850 782 799 868 851 783 800 
929 868 851 783 800 869 852 784 801 
930 869 852 784 801 870 853 785 802 
931 870 853 785 802 871 854 786 803 
932 871 854 786 803 872 855 787 804 
933 872 855 787 804 873 856 788 805 
934 873 856 788 805 874 857 789 806 
935 874 857 789 806 875 858 790 807 
936 875 858 790 807 876 859 791 808 
937 876 859 791 808 877 860 792 809 
938 877 860 792 809 878 861 793 810 
939 878 861 793 810 879 862 794 811 
940 879 862 794 811 880 863 795 812 
941 880 863 795 812 881 864 796 813 
942 881 864 796 813 882 865 797 814 
943 882 865 797 814 883 866 798 815 
944 883 866 798 815 579 578 574 575 
945 292 291 287 288 884 867 799 816 
946 884 867 799 816 885 868 800 817 
947 885 868 800 817 886 869 801 818 
948 886 869 801 818 887 870 802 819 
949 887 870 802 819 888 871 803 820 
950 888 871 803 820 889 872 804 821 
951 889 872 804 821 890 873 805 822 
952 890 873 805 822 891 874 806 823 
953 891 874 806 823 892 875 807 824 
954 892 875 807 824 893 876 808 825 
955 893 876 808 825 894 877 809 826 
956 894 877 809 826 895 878 810 827 
957 895 878 810 827 896 879 811 828 
958 896 879 811 828 897 880 812 829 
959 897 880 812 829 898 881 813 830 
960 898 881 813 830 899 882 814 831 
961 899 882 814 831 900 883 815 832 
962 900 883 815 832 580 579 575 576 
963 43 292 288 44 471 884 816 488 
964 471 884 816 488 472 885 817 489 
965 472 885 817 489 473 886 818 490 
966 473 886 818 490 474 887 819 491 
967 474 887 819 491 475 888 820 492 
968 475 888 820 492 476 889 821 493 
969 476 889 821 493 477 890 822 494 
970 477 890 822 494 478 891 823 495 
971 478 891 823 495 479 892 824 496 
972 479 892 824 496 480 893 825 497 
973 480 893 825 497 481 894 826 498 
974 481 894 826 498 482 895 827 499 
975 482 895 827 499 483 896 828 500 
976 483 896 828 500 484 897 829 501 
977 484 897 829 501 485 898 830 502 
978 485 898 830 502 486 899 831 503 
979 486 899 831 503 487 900 832 504 
980 487 900 832 504 79 580 576 80 
981 293 35 34 289 901 335 318 833 
982 901 335 318 833 902 336 319 834 
983 902 336 319 834 903 337 320 835 
984 903 337 320 835 904 338 321 836 
985 904 338 321 836 905 339 322 837 
986 905 339 322 837 906 340 323 838 
987 906 340 323 838 907 341 324 839 
988 907 341 324 839 908 342 325 840 
989 908 342 325 840 909 343 326 841 
990 909 343 326 841 910 344 327 842 
991 910 344 327 842 911 345 328 843 
992 911 345 328 843 912 346 329 844 
993 912 346 329 844 913 347 330 845 
994 913 347 330 845 914 348 331 846 
995 914 348 331 846 915 349 332 847 
996 915 349 332 847 916 350 333 848 
997 916 350 333 848 917 351 334 849 
998 917 351 334 849 581 71 70 577 
999 294 293 289 290 918 901 833 850 
1000 918 901 833 850 919 902 834 851 
1001 919 902 834 851 920 903 835 852 
1002 920 903 835 852 921 904 836 853 
1003 921 904 836 853 922 905 837 854 
1004 922 905 837 854 923 906 838 855 
1005 923 906 838 855 924 907 839 856 
1006 924 907 839 856 925 908 840 857 
1007 925 908 840 857 926 909 841 858 
1008 926 909 841 858 927 910 842 859 
1009 927 910 842 859 928 911 843 860 
1010 928 911 843 860 929 912 844 861 
1011 929 912 844 861 930 913 845 862 
1012 930 913 845 862 931 914 846 863 
1013 931 914 846 863 932 915 847 864 
1014 932 915 847 864 933 916 848 865 
1015 933 916 848 865 934 917 849 866 
1016 934 917 849 866 582 581 577 578 
1017 295 294 290 291 935 918 850 867 
1018 935 918 850 867 936 919 851 868 
1019 936 919 851 868 937 920 852 869 
1020 937 920 852 869 938 921 853 870 
1021 938 921 853 870 939 922 854 871 
1022 939 922 854 871 940 923 855 872 
1023 940 923 855 872 941 924 856 873 
1024 941 924 856 873 942 925 857 874 
1025 942 925 857 874 943 926 858 875 
1026 943 926 858 875 944 927 859 876 
1027 944 927 859 876 945 928 860 877 
1028 945 928 860 877 946 929 861 878 
1029 946 929 861 878 947 930 862 879 
1030 947 930 862 879 948 931 863 880 
1031 948 931 863 880 949 932 864 881 
1032 949 932 864 881 950 933 865 882 
1033 950 933 865 882 951 934 866 883 
1034 951 934 866 883 583 582 578 579 
1035 296 295 291 292 952 935 867 884 
1036 952 935 867 884 953 936 868 885 
1037 953 936 868 885 954 937 869 886 
1038 954 937 869 886 955 938 870 887 
1039 955 938 870 887 956 939 871 888 
1040 956 939 871 888 957 940 872 889 
1041 957 940 872 889 958 941 873 890 
1042 958 941 873 890 959 942 874 891 
1043 959 942 874 891 960 943 875 892 
1044 960 943 875 892 961 944 876 893 
1045 961 944 876 893 962 945 877 894 
1046 962 945 877 894 963 946 878 895 
1047 963 946 878 895 964 947 879 896 
1048 964 947 879 896 965 948 880 897 
1049 965 948 880 897 966 949 881 898 
1050 966 949 881 898 967 950 882 899 
1051 967 950 882 899 968 951 883 900 
1052 968 951 883 900 584 583 579 580 
1053 42 296 292 43 454 952 884 471 
1054 454 952 884 471 455 953 885 472 
1055 455 953 885 472 456 954 886 473 
1056 456 954 886 473 457 955 887 474 
1057 457 955 887 474 458 956 888 475 
1058 458 956 888 475 459 957 889 476 
1059 459 957 889 476 460 958 890 477 
1060 460 958 890 477 461 959 891 478 
1061 461 959 891 478 462 960 892 479 
1062 462 960 892 479 463 961 893 480 
1063 463 961 893 480 464 962 894 481 
1064 464 962 894 481 465 963 895 482 
1065 465 963 895 482 466 964 896 483 
1066 466 964 896 483 467 965 897 484 
1067 467 965 897 484 468 966 898 485 
1068 468 966 898 485 469 967 899 486 
1069 469 967 899 486 470 968 900 487 
1070 470 968 900 487 78 584 580 79 
1071 297 36 35 293 969 352 335 901 
1072 969 352 335 901 970 353 336 902 
1073 970 353 336 902 971 354 337 903 
1074 971 354 337 903 972 355 338 904 
1075 972 355 338 904 973 356 339 905 
1076 973 356 339 905 974 357 340 906 
1077 974 357 340 906 975 358 341 907 
1078 975 358 341 907 976 359 342 908 
1079 976 359 342 908 977 360 343 909 
1080 977 360 343 909 978 361 344 910 
1081 978 361 344 910 979 362 345 911 
1082 979 362 345 911 980 363 346 912 
1083 980 363 346 912 981 364 347 913 
1084 981 364 347 913 982 365 348 914 
1085 982 365 348 914 983 366 349 915 
1086 983 366 349 915 984 367 350 916 
1087 984 367 350 916 985 368 351 917 
1088 985 368 351 917 585 72 71 581 
1089 298 297 293 294 986 969 901 918 
1090 986 969 901 918 987 970 902 919 
1091 987 970 902 919 988 971 903 920 
1092 988 971 903 920 989 972 904 921 
1093 989 972 904 921 990 973 905 922 
1094 990 973 905 922 991 974 906 923 
1095 991 974 906 923 992 975 907 924 
1096 992 975 907 924 993 976 908 925 
1097 993 976 908 925 994 977 909 926 
1098 994 977 909 926 995 978 910 927 
1099 995 978 910 927 996 979 911 928 
1100 996 979 911 928 997 980 912 929 
1101 997 980 912 929 998 981 913 930 
1102 998 981 913 930 999 982 914 931 
1103 999 982 914 931 1000 983 915 932 
1104 1000 983 915 932 1001 984 916 933 
1105 1001 984 916 933 1002 985 917 934 
1106 1002 985 917 934 586 585 581 582 
1107 299 298 294 295 1003 986 918 935 
1108 1003 986 918 935 1004 987 919 936 
1109 1004 987 919 936 1005 988 920 937 
1110 1005 988 920 937 1006 989 921 938 
1111 1006 989 921 938 1007 990 922 939 
1112 1007 990 922 939 1008 991 923 940 
1113 1008 991 923 940 1009 992 924 941 
1114 1009 992 924 941 1010 993 925 942 
1115 1010 993 925 942 1011 994 926 943 
1116 1011 994 926 943 1012 995 927 944 
1117 1012 995 927 944 1013 996 928 945 
1118 1013 996 928 945 1014 997 929 946 
1119 1014 997 929 946 1015 998 930 947 
1120 1015 998 930 947 1016 999 931 948 
1121 1016 999 931 948 1017 1000 932 949 
1122 1017 1000 932 949 1018 1001 933 950 
1123 1018 1001 933 950 1019 1002 934 951 
1124 1019 1002 934 951 587 586 582 583 
1125 300 299 295 296 1020 1003 935 952 
1126 1020 1003 935 952 1021 1004 936 953 
1127 1021 1004 936 953 1022 1005 937 954 
1128 1022 1005 937 954 1023 1006 938 955 
1129 1023 1006 938 955 1024 1007 939 956 
1130 1024 1007 939 956 1025 1008 940 957 
1131 1025 1008 940 957 1026 1009 941 958 
1132 1026 1009 941 958 1027 1010 942 959 
1133 1027 1010 942 959 1028 1011 943 960 
1134 1028 1011 943 960 1029 1012 944 961 
1135 1029 1012 944 961 1030 1013 945 962 
1136 1030 1013 945 962 1031 1014 946 963 
1137 1031 1014 946 963 1032 1015 947 964 
1138 1032 1015 947 964 1033 1016 948 965 
1139 1033 1016 948 965 1034 1017 949 966 
1140 1034 1017 949 966 1035 1018 950 967 
1141 1035 1018 950 967 1036 1019 951 968 
1142 1036 1019 951 968 588 587 583 584 
1143 41 300 296 42 437 1020 952 454 
1144 437 1020 952 454 438 1021 953 455 
1145 438 1021 953 455 439 1022 954 456 
1146 439 1022 954 456 440 1023 955 457 
1147 440 1023 955 457 441 1024 956 458 
1148 441 1024 956 458 442 1025 957 459 
1149 442 1025 957 459 443 1026 958 460 
1150 443 1026 958 460 444 1027 959 461 
1151 444 1027 959 461 445 1028 960 462 
1152 445 1028 960 462 446 1029 961 463 
1153 446 1029 961 463 447 1030 962 464 
1154 447 1030 962 464 448 1031 963 465 
1155 448 1031 963 465 449 1032 964 466 
1156 449 1032 964 466 450 1033 965 467 
1157 450 1033 965 467 451 1034 966 468 
1158 451 1034 966 468 452 1035 967 469 
1159 452 1035 967 469 453 1036 968 470 
1160 453 1036 968 470 77 588 584 78 
1161 37 6 36 297 369 102 352 969 
1162 369 102 352 969 370 103 353 970 
1163 370 103 353 970 371 104 354 971 
1164 371 104 354 971 372 105 355 972 
1165 372 105 355 972 373 106 356 973 
1166 373 106 356 973 374 107 357 974 
1167 374 107 357 974 375 108 358 975 
1168 375 108 358 975 376 109 359 976 
1169 376 109 359 976 377 110 360 977 
1170 377 110 360 977 378 111 361 978 
1171 378 111 361 978 379 112 362 979 
1172 379 112 362 979 380 113 363 980 
1173 380 113 363 980 381 114 364 981 
1174 381 114 364 981 382 115 365 982 
1175 382 115 365 982 383 116 366 983 
1176 383 116 366 983 384 117 367 984 
1177 384 117 367 984 385 118 368 985 
1178 385 118 368 985 73 10 72 585 
1179 38 37 297 298 386 369 969 986 
1180 386 369 969 986 387 370 970 987 
1181 387 370 970 987 388 371 971 988 
1182 388 371 971 988 389 372 972 989 
1183 389 372 972 989 390 373 973 990 
1184 390 373 973 990 391 374 974 991 
1185 391 374 974 991 392 375 975 992 
1186 392 375 975 992 393 376 976 993 
1187 393 376 976 993 394 377 977 994 
1188 394 377 977 994 395 378 978 995 
1189 395 378 978 995 396 379 979 996 
1190 396 379 979 996 397 380 980 997 
1191 397 380 980 997 398 381 981 998 
1192 398 381 981 998 399 382 982 999 
1193 399 382 982 999 400 383 983 1000 
1194 400 383 983 1000 401 384 984 1001 
1195 401 384 984 1001 402 385 985 1002 
1196 402 385 985 1002 74 73 585 586 
1197 39 38 298 299 403 386 986 1003 
1198 403 386 986 1003 404 387 987 1004 
1199 404 387 987 1004 405 388 988 1005 
1200 405 388 988 1005 406 389 989 1006 
1201 406 389 989 1006 407 390 990 1007 
1202 407 390 990 1007 408 391 991 1008 
1203 408 391 991 1008 409 392 992 1009 
1204 409 392 992 1009 410 393 993 1010 
1205 410 393 993 1010 411 394 994 1011 
1206 411 394 994 1011 412 395 995 1012 
1207 412 395 995 1012 413 396 996 1013 
1208 413 396 996 1013 414 397 997 1014 
1209 414 397 997 1014 415 398 998 1015 
1210 415 398 998 1015 416 399 999 1016 
1211 416 399 999 1016 417 400 1000 1017 
1212 417 400 1000 1017 418 401 1001 1018 
1213 418 401 1001 1018 419 402 1002 1019 
1214 419 402 1002 1019 75 74 586 587 
1215 40 39 299 300 420 403 1003 1020 
1216 420 403 1003 1020 421 404 1004 1021 
1217 421 404 1004 1021 422 405 1005 1022 
1218 422 405 1005 1022 423 406 1006 1023 
1219 423 406 1006 1023 424 407 1007 1024 
1220 424 407 1007 1024 425 408 1008 1025 
1221 425 408 1008 1025 426 409 1009 1026 
1222 426 409 1009 1026 427 410 1010 1027 
1223 427 410 1010 1027 428 411 1011 1028 
1224 428 411 1011 1028 429 412 1012 1029 
1225 429 412 1012 1029 430 413 1013 1030 
1226 430 413 1013 1030 431 414 1014 1031 
1227 431 414 1014 1031 432 415 1015 1032 
1228 432 415 1015 1032 433 416 1016 1033 
1229 433 416 1016 1033 434 417 1017 1034 
1230 434 417 1017 1034 435 418 1018 1035 
1231 435 418 1018 1035 436 419 1019 1036 
1232 436 419 1019 1036 76 75 587 588 
1233 7 40 300 41 119 420 1020 437 
1234 119 420 1020 437 120 421 1021 438 
1235 120 421 1021 438 121 422 1022 439 
1236 121 422 1022 439 122 423 1023 440 
1237 122 423 1023 440 123 424 1024 441 
1238 123 424 1024 441 124 425 1025 442 
1239 124 425 1025 442 125 426 1026 443 
1240 125 426 1026 443 126 427 1027 444 
1241 126 427 1027 444 127 428 1028 445 
1242 127 428 1028 445 128 429 1029 446 
1243 128 429 1029 446 129 430 1030 447 
1244 129 430 1030 447 130 431 1031 448 
1245 130 431 1031 448 131 432 1032 449 
1246 131 432 1032 449 132 433 1033 450 
1247 132 433 1033 450 133 434 1034 451 
1248 133 434 1034 451 134 435 1035 452 
1249 134 435 1035 452 135 436 1036 453 
1250 135 436 1036 453 11 76 588 77 
3 3 5 150
1251 573 69 9 84 1037 589 169 664 
1252 1037 589 169 664 1038 590 170 665 
1253 1038 590 170 665 1039 591 171 666 
1254 1039 591 171 666 1040 592 172 667 
1255 1040 592 172 667 1041 593 173 668 
1256 1041 593 173 668 669 153 13 168 
1257 574 573 84 83 1042 1037 664 659 
1258 1042 1037 664 659 1043 1038 665 660 
1259 1043 1038 665 660 1044 1039 666 661 
1260 1044 1039 666 661 1045 1040 667 662 
1261 1045 1040 667 662 1046 1041 668 663 
1262 1046 1041 668 663 670 669 168 167 
1263 575 574 83 82 1047 1042 659 654 
1264 1047 1042 659 654 1048 1043 660 655 
1265 1048 1043 660 655 1049 1044 661 656 
1266 1049 1044 661 656 1050 1045 662 657 
1267 1050 1045 662 657 1051 1046 663 658 
1268 1051 1046 663 658 671 670 167 166 
1269 576 575 82 81 1052 1047 654 649 
1270 1052 1047 654 649 1053 1048 655 650 
1271 1053 1048 655 650 1054 1049 656 651 
1272 1054 1049 656 651 1055 1050 657 652 
1273 1055 1050 657 652 1056 1051 658 653 
1274 1056 1051 658 653 672 671 166 165 
1275 80 576 81 12 644 1052 649 184 
1276 644 1052 649 184 645 1053 650 185 
1277 645 1053 650 185 646 1054 651 186 
1278 646 1054 651 186 647 1055 652 187 
1279 647 1055 652 187 648 1056 653 188 
1280 648 1056 653 188 164 672 165 16 
1281 577 70 69 573 1057 594 589 1037 
1282 1057 594 589 1037 1058 595 590 1038 
1283 1058 595 590 1038 1059 596 591 1039 
1284 1059 596 591 1039 1060 597 592 1040 
1285 1060 597 592 1040 1061 598 593 1041 
1286 1061 598 593 1041 673 154 153 669 
1287 578 577 573 574 1062 1057 1037 1042 
1288 1062 1057 1037 1042 1063 1058 1038 1043 
1289 1063 1058 1038 1043 1064 1059 1039 1044 
1290 1064 1059 1039 1044 1065 1060 1040 1045 
1291 1065 1060 1040 1045 1066 1061 1041 1046 
1292 1066 1061 1041 1046 674 673 669 670 
1293 579 578 574 575 1067 1062 1042 1047 
1294 1067 1062 1042 1047 1068 1063 1043 1048 
1295 1068 1063 1043 1048 1069 1064 1044 1049 
1296 1069 1064 1044 1049 1070 1065 1045 1050 
1297 1070 1065 1045 1050 1071 1066 1046 1051 
1298 1071 1066 1046 1051 675 674 670 671 
1299 580 579 575 576 1072 1067 1047 1052 
1300 1072 1067 1047 1052 1073 1068 1048 1053 
1301 1073 1068 1048 1053 1074 1069 1049 1054 
1302 1074 1069 1049 1054 1075 1070 1050 1055 
1303 1075 1070 1050 1055 1076 1071 1051 1056 
1304 1076 1071 1051 1056 676 675 671 672 
1305 79 580 576 80 639 1072 1052 644 
1306 639 1072 1052 644 640 1073 1053 645 
1307 640 1073 1053 645 641 1074 1054 646 
1308 641 1074 1054 646 642 1075 1055 647 
1309 642 1075 1055 647 643 1076 1056 648 
1310 643 1076 1056 648 163 676 672 164 
1311 581 71 70 577 1077 599 594 1057 
1312 1077 599 594 1057 1078 600 595 1058 
1313 1078 600 595 1058 1079 601 596 1059 
1314 1079 601 596 1059 1080 602 597 1060 
1315 1080 602 597 1060 1081 603 598 1061 
1316 1081 603 598 1061 677 155 154 673 
1317 582 581 577 578 1082 1077 1057 1062 
1318 1082 1077 1057 1062 1083 1078 1058 1063 
1319 1083 1078 1058 1063 1084 1079 1059 1064 
1320 1084 1079 1059 1064 1085 1080 1060 1065 
1321 1085 1080 1060 1065 1086 1081 1061 1066 
1322 1086 1081 1061 1066 678 677 673 674 
1323 583 582 578 579 1087 1082 1062 1067 
1324 1087 1082 1062 1067 1088 1083 1063 1068 
1325 1088 1083 1063 1068 1089 1084 1064 1069 
1326 1089 1084 1064 1069 1090 1085 1065 1070 
1327 1090 1085 1065 1070 1091 1086 1066 1071 
1328 1091 1086 1066 1071 679 678 674 675 
1329 584 583 579 580 1092 1087 1067 1072 
1330 1092 1087 1067 1072 1093 1088 1068 1073 
1331 1093 1088 1068 1073 1094 1089 1069 1074 
1332 1094 1089 1069 1074 1095 1090 1070 1075 
1333 1095 1090 1070 1075 1096 1091 1071 1076 
1334 1096 1091 1071 1076 680 679 675 676 
1335 78 584 580 79 634 1092 1072 639 
1336 634 1092 1072 639 635 1093 1073 640 
1337 635 1093 1073 640 636 1094 1074 641 
1338 636 1094 1074 641 637 1095 1075 642 
1339 637 1095 1075 642 638 1096 1076 643 
1340 638 1096 1076 643 162 680 676 163 
1341 585 72 71 581 1097 604 599 1077 
1342 1097 604 599 1077 1098 605 600 1078 
1343 1098 605 600 1078 1099 606 601 1079 
1344 1099 606 601 1079 1100 607 602 1080 
1345 1100 607 602 1080 1101 608 603 1081 
1346 1101 608 603 1081 681 156 155 677 
1347 586 585 581 582 1102 1097 1077 1082 
1348 1102 1097 1077 1082 1103 1098 1078 1083 
1349 1103 1098 1078 1083 1104 1099 1079 1084 
1350 1104 1099 1079 1084 1105 1100 1080 1085 
1351 1105 1100 1080 1085 1106 1101 1081 1086 
1352 1106 1101 1081 1086 682 681 677 678 
1353 587 586 582 583 1107 1102 1082 1087 
1354 1107 1102 1082 1087 1108 1103 1083 1088 
1355 1108 1103 1083 1088 1109 1104 1084 1089 
1356 1109 1104 1084 1089 1110 1105 1085 1090 
1357 1110 1105 1085 1090 1111 1106 1086 1091 
1358 1111 1106 1086 1091 683 682 678 679 
1359 588 587 583 584 1112 1107 1087 1092 
1360 1112 1107 1087 1092 1113 1108 1088 1093 
1361 1113 1108 1088 1093 1114 1109 1089 1094 
1362 1114 1109 1089 1094 1115 1110 1090 1095 
1363 1115 1110 1090 1095 1116 1111 1091 1096 
1364 1116 1111 1091 1096 684 683 679 680 
1365 77 588 584 78 629 1112 1092 634 
1366 629 1112 1092 634 630 1113 1093 635 
1367 630 1113 1093 635 631 1114 1094 636 
1368 631 1114 1094 636 632 1115 1095 637 
1369 632 1115 1095 637 633 1116 1096 638 
1370 633 1116 1096 638 161 684 680 162 
1371 73 10 72 585 609 174 604 1097 
1372 609 174 604 1097 610 175 605 1098 
1373 610 175 605 1098 611 176 606 1099 
1374 611 176 606 1099 612 177 607 1100 
1375 612 177 607 1100 613 178 608 1101 
1376 613 178 608 1101 157 14 156 681 
1377 74 73 585 586 614 609 1097 1102 
1378 614 609 1097 1102 615 610 1098 1103 
1379 615 610 1098 1103 616 611 1099 1104 
1380 616 611 1099 1104 617 612 1100 1105 
1381 617 612 1100 1105 618 613 1101 1106 
1382 618 613 1101 1106 158 157 681 682 
1383 75 74 586 587 619 614 1102 1107 
1384 619 614 1102 1107 620 615 1103 1108 
1385 620 615 1103 1108 621 616 1104 1109 
1386 621 616 1104 1109 622 617 1105 1110 
1387 622 617 1105 1110 623 618 1106 1111 
1388 623 618 1106 1111 159 158 682 683 
1389 76 75 587 588 624 619 1107 1112 
1390 624 619 1107 1112 625 620 1108 1113 
1391 625 620 1108 1113 626 621 1109 1114 
1392 626 621 1109 1114 627 622 1110 1115 
1393 627 622 1110 1115 628 623 1111 1116 
1394 628 623 1111 1116 160 159 683 684 
1395 11 76 588 77 179 624 1112 629 
1396 179 624 1112 629 180 625 1113 630 
1397 180 625 1113 630 181 626 1114 631 
1398 181 626 1114 631 182 627 1115 632 
1399 182 627 1115 632 183 628 1116 633 
1400 183 628 1116 633 15 160 684 161 
$EndElements
